<?xml version="1.0" encoding="utf-8"?>
<!-- Generator: Adobe Illustrator 27.6.1, SVG Export Plug-In . SVG Version: 6.00 Build 0)  -->
<svg version="1.1" xmlns="http://www.w3.org/2000/svg" xmlns:xlink="http://www.w3.org/1999/xlink" x="0px" y="0px"
	 viewBox="0 0 512 512" style="enable-background:new 0 0 512 512;" xml:space="preserve">
<style type="text/css">
	.st0{fill:url(#SVGID_1_);}
	.st1{fill:#FFCC00;}
	.st2{fill:none;}
	.st3{fill:#FFB515;stroke:#FFBA49;stroke-miterlimit:10;}
	.st4{fill:url(#SVGID_00000090292159188514461550000012670489015046363041_);}
	.st5{fill:url(#SVGID_00000138553063309014999370000001382726031841297068_);}
</style>
<g id="Layer_2">
	<g>
		
			<linearGradient id="SVGID_1_" gradientUnits="userSpaceOnUse" x1="172.9357" y1="167.7071" x2="166.3113" y2="124.5603" gradientTransform="matrix(0.754 -0.5177 0.482 0.702 -92.6109 230.6737)">
			<stop  offset="0" style="stop-color:#FFCC00"/>
			<stop  offset="0.3362" style="stop-color:#FDCB00"/>
			<stop  offset="0.4572" style="stop-color:#F6CA00"/>
			<stop  offset="0.5436" style="stop-color:#EBC700"/>
			<stop  offset="0.6133" style="stop-color:#DAC200"/>
			<stop  offset="0.6731" style="stop-color:#C4BC00"/>
			<stop  offset="0.7261" style="stop-color:#A8B500"/>
			<stop  offset="0.7727" style="stop-color:#89AC00"/>
			<stop  offset="0.8154" style="stop-color:#65A300"/>
			<stop  offset="0.8184" style="stop-color:#62A200"/>
			<stop  offset="1" style="stop-color:#734F00"/>
		</linearGradient>
		<path class="st0" d="M134.4,253.3c-0.5-2-26.1-14.2-28.2-15.4c-1.6-0.9-7.5-1.6-10.1-1.9c-0.8-0.1-1.6-0.4-2.2-1l-6.3-5.3
			c-1.7-1.5-4.3-1.3-5.7,0.4h0c-1.4,1.7-1.2,4.3,0.5,5.8l5.1,4.4c0.2,0.2,0.5,0.4,0.6,0.7l25.2,34.2c0.2,0.2,0.4,0.5,0.6,0.7
			l6.3,4.8c1.7,1.3,4.1,1.1,5.5-0.5C129.8,275.5,137.3,264.9,134.4,253.3z"/>
		<g>
			<path class="st1" d="M114.8,241.6c0,0-0.1,0.1-0.4,0.3l0.8,0C115.1,241.8,115,241.7,114.8,241.6z"/>
			<path class="st2" d="M220.9,277.4c43.1,2.9,84.5-13.3,118.9-36.7c2.8-1.9,5.6-3.8,8.5-5.8c2.8-1.9,6.4-2.2,9.7-0.9
				c0.5-0.7,0.9-1.4,1.4-2.2l-244.1,10C148.8,261.5,184.2,275.4,220.9,277.4z"/>
			<path class="st1" d="M364.8,238.6l-4-3c-0.9-0.7-1.8-1.2-2.8-1.6c-33.5,51.8-90.9,78.5-149.9,68.5c-52.2-8.8-85.9-40.1-99.7-55.3
				c-0.5,0.5-1.1,1-1.6,1.5c-1.2,1-2,2.3-2.6,3.8l0.5-1.1C104.6,251.5,248.3,403.8,364.8,238.6z"/>
			<path class="st1" d="M208.1,302.6c59,10,116.4-16.7,149.9-68.5c-3.3-1.3-6.9-1-9.7,0.9c-2.9,2-5.7,3.9-8.5,5.8
				c-34.5,23.4-75.8,39.6-118.9,36.7c-30.5-1.7-100-32.2-105.6-35.5l-0.8,0c-0.9,0.8-3.4,3-6.1,5.4
				C122.2,262.5,155.9,293.8,208.1,302.6z"/>
			<path class="st2" d="M364.8,238.6c4.4,3.2,6.3,8.9,4.8,13.8c-18.7,59.8-80.7,95.9-142.7,89.4c-36.6-3.5-73.8-21.1-100.8-49.9
				c-8.2-8.9-15.6-18.6-21.2-29.2c-1.8-3.3-2-7.1-0.8-10.1l-26.4,56.6l73.7,72l98.4,8.8l183.5-136C433.3,254,481.3,73.3,364.8,238.6
				z"/>
			<path class="st3" d="M104.9,262.7c5.6,10.6,13,20.3,21.2,29.2c26.9,28.9,64.2,46.4,100.8,49.9c62.1,6.5,124-29.6,142.7-89.4
				c1.5-4.9-0.4-10.6-4.8-13.8c-116.5,165.2-260.2,12.9-260.2,12.9l-0.5,1.1C102.9,255.6,103.1,259.4,104.9,262.7z"/>
		</g>
	</g>
</g>
<g id="Layer_3">
	<g>
		
			<linearGradient id="SVGID_00000038383538631065370830000008041283771946419083_" gradientUnits="userSpaceOnUse" x1="137.2063" y1="191.0408" x2="130.5819" y2="147.8941" gradientTransform="matrix(0.9935 -0.3188 0.2909 0.9065 -74.3523 137.4668)">
			<stop  offset="0" style="stop-color:#FFCC00"/>
			<stop  offset="0.3362" style="stop-color:#FDCB00"/>
			<stop  offset="0.4572" style="stop-color:#F6CA00"/>
			<stop  offset="0.5436" style="stop-color:#EBC700"/>
			<stop  offset="0.6133" style="stop-color:#DAC200"/>
			<stop  offset="0.6731" style="stop-color:#C4BC00"/>
			<stop  offset="0.7261" style="stop-color:#A8B500"/>
			<stop  offset="0.7727" style="stop-color:#89AC00"/>
			<stop  offset="0.8154" style="stop-color:#65A300"/>
			<stop  offset="0.8184" style="stop-color:#62A200"/>
			<stop  offset="1" style="stop-color:#734F00"/>
		</linearGradient>
		<path style="fill:url(#SVGID_00000038383538631065370830000008041283771946419083_);" d="M136.5,265.8
			c0.1-2.3-23.6-23.5-25.6-25.4c-1.5-1.5-7.6-4.1-10.3-5.2c-0.9-0.4-1.6-1-2.1-1.7l-5.1-7.7c-1.4-2.1-4.2-2.7-6.3-1.4h0
			c-2.1,1.4-2.7,4.3-1.3,6.4l4.1,6.4c0.2,0.3,0.3,0.6,0.5,0.9l16,44.7c0.1,0.3,0.3,0.6,0.5,0.9l5.2,7.1c1.4,2,4.1,2.5,6.1,1.2
			C124.2,288.3,135.9,279.3,136.5,265.8z"/>
		<g>
			<path class="st1" d="M119.1,247.2c0,0-0.2,0.1-0.5,0.2l0.9,0.2C119.4,247.5,119.2,247.3,119.1,247.2z"/>
			<path class="st2" d="M222.7,319.1c46,16.7,96.4,12.3,141.7-1.9c3.7-1.1,7.4-2.3,11.2-3.5c3.7-1.2,7.7-0.4,10.9,2.1
				c0.8-0.6,1.5-1.3,2.2-1.9l-269.1-66.2C149.5,279.2,183.4,305.3,222.7,319.1z"/>
			<path class="st1" d="M392.3,322.7l-3.4-4.4c-0.7-1-1.6-1.8-2.5-2.6c-53.8,45.1-125.1,55.7-186,26.4
				c-53.9-25.9-80.1-70.2-90.2-90.8c-0.8,0.3-1.5,0.7-2.3,1c-1.6,0.7-3,1.9-4.1,3.2l0.9-1C104.7,254.5,210.4,463.6,392.3,322.7z"/>
			<path class="st1" d="M200.4,342.1c61,29.3,132.3,18.7,186-26.4c-3.2-2.4-7.2-3.3-10.9-2.1c-3.8,1.2-7.5,2.4-11.2,3.5
				c-45.3,14.3-95.7,18.6-141.7,1.9c-32.6-11.5-98.1-66.1-103.2-71.5l-0.9-0.2c-1.3,0.6-4.7,2.2-8.4,3.9
				C120.3,271.9,146.5,316.1,200.4,342.1z"/>
			<path class="st2" d="M392.3,322.7c3.7,4.9,3.9,11.6,0.6,16.4c-40.3,58.4-119.8,77.6-185.2,51.1c-38.7-15.3-73.4-45.9-93.1-85.4
				c-6-12.1-10.8-24.9-13.4-38.1c-0.8-4.1,0.2-8.2,2.5-11.1l-47.6,52.5l56.2,100.6l104.2,40.5l245.1-88.4
				C461.7,360.8,574.2,181.8,392.3,322.7z"/>
			<path class="st3" d="M101.3,266.7c2.6,13.2,7.4,26,13.4,38.1c19.7,39.5,54.4,70.1,93.1,85.4c65.4,26.5,144.9,7.3,185.2-51.1
				c3.3-4.8,3.1-11.5-0.6-16.4c-181.9,140.9-287.6-68.1-287.6-68.1l-0.9,1C101.5,258.4,100.5,262.5,101.3,266.7z"/>
		</g>
	</g>
</g>
<g id="Layer_1">
	<g>
		
			<linearGradient id="SVGID_00000002377646703355892480000002202050281953042316_" gradientUnits="userSpaceOnUse" x1="108.4272" y1="272.6788" x2="102.0633" y2="231.2285">
			<stop  offset="0" style="stop-color:#FFCC00"/>
			<stop  offset="0.3362" style="stop-color:#FDCB00"/>
			<stop  offset="0.4572" style="stop-color:#F6CA00"/>
			<stop  offset="0.5436" style="stop-color:#EBC700"/>
			<stop  offset="0.6133" style="stop-color:#DAC200"/>
			<stop  offset="0.6731" style="stop-color:#C4BC00"/>
			<stop  offset="0.7261" style="stop-color:#A8B500"/>
			<stop  offset="0.7727" style="stop-color:#89AC00"/>
			<stop  offset="0.8154" style="stop-color:#65A300"/>
			<stop  offset="0.8184" style="stop-color:#62A200"/>
			<stop  offset="1" style="stop-color:#734F00"/>
		</linearGradient>
		<path style="fill:url(#SVGID_00000002377646703355892480000002202050281953042316_);" d="M130,278c0.9-2.1-18.2-29.7-19.7-32.2
			c-1.2-1.9-7.1-6.2-9.8-8.1c-0.9-0.6-1.5-1.4-1.8-2.3l-3-9c-0.8-2.5-3.8-3.9-6.7-3.2h0c-2.9,0.7-4.6,3.2-3.9,5.7l2.3,7.4
			c0.1,0.3,0.2,0.7,0.2,1l1.9,47.7c0,0.3,0.1,0.7,0.2,1l3.3,8.4c0.9,2.3,3.7,3.6,6.5,3.1C107.9,295.7,124.3,290.6,130,278z"/>
		<g>
			<path class="st1" d="M117.1,254.7c0,0-0.2,0-0.6,0.1l1,0.5C117.3,255.1,117.2,254.9,117.1,254.7z"/>
			<path class="st2" d="M208,355.4c45.9,30.1,104.4,41.4,160.8,41.6c4.6,0.1,9.2,0,13.9,0c4.6,0,8.8,2,11.5,5.3
				c1.1-0.4,2.2-0.7,3.2-1.1L117.4,255.3C139.9,294.7,168.7,330.1,208,355.4z"/>
			<path class="st1" d="M398.4,410.9l-2.2-5.3c-0.5-1.2-1.1-2.2-1.9-3.2c-77.1,26.7-161.5,14.9-219.8-31.8
				c-51.5-41.4-65.1-91.7-68.9-114.6c-1,0.1-2,0.2-2.9,0.3c-2.1,0.2-4.1,0.9-5.8,1.8l1.4-0.7C98.2,257.4,141.8,489.8,398.4,410.9z"
				/>
			<path class="st1" d="M174.5,370.5c58.2,46.8,142.7,58.5,219.8,31.8c-2.7-3.3-6.9-5.3-11.5-5.3c-4.7,0-9.3,0-13.9,0
				c-56.4-0.3-114.9-11.6-160.8-41.6c-32.7-21-86.9-93.4-90.6-100l-1-0.5c-1.6,0.2-6.1,0.6-10.9,1.1
				C109.4,278.8,123,329.1,174.5,370.5z"/>
			<path class="st2" d="M398.4,410.9c2.4,5.8,0.2,12.3-5.2,15.9c-66.7,43.5-163.5,37.5-227.8-8c-38.2-26.5-66.3-66.4-74.2-110.3
				c-2.4-13.4-3.1-27.1-1.3-40.5c0.6-4.2,3.2-7.8,6.9-9.9L24,293.7l27,113.5L154,478l309-9.3C463,468.7,655,331.9,398.4,410.9z"/>
			<path class="st3" d="M89.9,267.9c-1.9,13.4-1.1,27.1,1.3,40.5c8,43.8,36,83.8,74.2,110.3c64.3,45.4,161.1,51.5,227.8,8
				c5.5-3.6,7.6-10.1,5.2-15.9c-256.6,79-300.2-153.5-300.2-153.5l-1.4,0.7C93.1,260.1,90.5,263.7,89.9,267.9z"/>
		</g>
	</g>
</g>
</svg>
