<?xml version="1.0" encoding="utf-8"?>
<!-- Generator: Adobe Illustrator 27.6.1, SVG Export Plug-In . SVG Version: 6.00 Build 0)  -->
<svg version="1.1" id="Layer_1" xmlns="http://www.w3.org/2000/svg" xmlns:xlink="http://www.w3.org/1999/xlink" x="0px" y="0px"
	 viewBox="0 0 1366 1024" style="enable-background:new 0 0 1366 1024;" xml:space="preserve">
<style type="text/css">
	.st0{fill:none;stroke:#000000;stroke-miterlimit:10;}
	.st1{fill:url(#SVGID_1_);}
	.st2{fill:url(#SVGID_00000162342262722400736850000016017024064614789808_);}
	.st3{fill:#006837;}
	.st4{fill:#8CC63F;}
	.st5{fill:#008C37;}
	.st6{fill:#559545;}
	.st7{fill:#42210B;}
	.st8{fill:#754C24;}
	.st9{fill:#39B54A;}
	.st10{fill:none;}
	.st11{fill:url(#SVGID_00000167385235239771516850000006388536495684879244_);}
	.st12{fill:#FFFFFF;}
</style>
<g id="sky">
	<rect x="1.06" class="st0" width="1361.94" height="907.84"/>
	
		<linearGradient id="SVGID_1_" gradientUnits="userSpaceOnUse" x1="680.968" y1="123.5046" x2="680.968" y2="1025.5145" gradientTransform="matrix(1 0 0 -1 0 1026)">
		<stop  offset="0" style="stop-color:#CCE0F4;stop-opacity:0.5"/>
		<stop  offset="0.588" style="stop-color:#D0DEEA;stop-opacity:0.8"/>
		<stop  offset="0.6334" style="stop-color:#C7DBE9;stop-opacity:0.8"/>
		<stop  offset="0.7061" style="stop-color:#B0D2E7;stop-opacity:0.8"/>
		<stop  offset="0.7967" style="stop-color:#8AC4E3;stop-opacity:0.8"/>
		<stop  offset="0.9008" style="stop-color:#56B1DD;stop-opacity:0.8"/>
		<stop  offset="1" style="stop-color:#1E9CD7;stop-opacity:0.8"/>
	</linearGradient>
	<rect y="0.49" class="st1" width="1361.94" height="902.01"/>
</g>
<g id="beach">
	
		<linearGradient id="SVGID_00000007387776129159469210000004270315075273813138_" gradientUnits="userSpaceOnUse" x1="681.5" y1="8" x2="681.5" y2="352" gradientTransform="matrix(1 0 0 -1 0 1026)">
		<stop  offset="0" style="stop-color:#EDDFB2"/>
		<stop  offset="0.2821" style="stop-color:#E0E5D1"/>
		<stop  offset="0.5073" style="stop-color:#D4EBEC"/>
		<stop  offset="0.6045" style="stop-color:#C7E6E7"/>
		<stop  offset="0.7859" style="stop-color:#A3D9DA"/>
		<stop  offset="1" style="stop-color:#72C6C7"/>
	</linearGradient>
	<rect x="1" y="674" style="fill:url(#SVGID_00000007387776129159469210000004270315075273813138_);" width="1361" height="344"/>
</g>
<g id="palmtree1">
	<path class="st3" d="M112.39,541.14c7.11-40.67-83.16-46.02-97.09-23.85C68.19,505.83,105.92,533.36,112.39,541.14z"/>
	<path class="st4" d="M156.6,617.75c15.68-80.17-30.29-132.96-126.34-109.93C129.03,521.13,174.69,599.27,156.6,617.75z"/>
	<path class="st3" d="M125.38,584.77c-5.29-29.34-78.37-18.93-83.07,11.1C88.32,562.66,126.18,589.24,125.38,584.77z"/>
	<path class="st4" d="M159.6,617.2c6.55-47.26-46.6-87.65-113.06-32.32C140.64,557.4,159.6,617.2,159.6,617.2z"/>
	<path class="st3" d="M247.77,634.66c27.11-19.45,75.31,20.62,72.08,55.63C286.05,622.57,247.77,634.66,247.77,634.66z"/>
	<path class="st4" d="M156.95,618.35c37.27-44.77,144.02-29.82,161.52,66.6C281.86,611.28,156.95,618.35,156.95,618.35z"/>
	<path class="st3" d="M207.28,644.09c31.77,2.86,34.74,63.04,24.29,81.1C222.98,686.65,207.28,644.09,207.28,644.09z"/>
	<path class="st4" d="M151.64,622.68c38.92-19.16,99.87,19.33,82.03,96.65C236.6,641.66,151.64,622.68,151.64,622.68z"/>
	<path class="st3" d="M196.65,572.39c-6.55-30.18,80.43-25.76,81.58-2.85C238.65,548.75,194.47,573.57,196.65,572.39z"/>
	<path class="st4" d="M158.49,618.49c-5.8-43.76,50.78-108.04,114.08-58.57C184.21,535.04,158.49,618.49,158.49,618.49z"/>
	<path class="st3" d="M116.63,606.87c-17.45-0.33-40.99,25.85-35.44,43.66C92.31,629.61,116.63,606.87,116.63,606.87z"/>
	<path class="st4" d="M153.57,613.99c-20.14-27.59-58.41-25.27-73.16,27.93C103.6,606.45,153.57,613.99,153.57,613.99z"/>
	<path class="st5" d="M174.7,630.68l-6.35,5.77c2.66,2.37,5.55,5.03,8.6,7.95l9.79-6.79l-8.66,7.88c2.98,2.89,6.12,6.02,9.33,9.38
		l8.31-8.2l-6.58,10.01c3.15,3.34,6.36,6.9,9.59,10.66l12.58-7.37l-11.63,8.47c2.48,2.92,4.98,5.97,7.45,9.12l8.19-4.26l-6.98,5.83
		c9.22,11.94,18.09,25.44,25.33,40.16c11.06-31.39-26.44-112.2-82.03-96.65c0,0,6.35,4.61,15.84,13.01L174.7,630.68z"/>
	<path class="st5" d="M99.46,623.83l2.51,5.2c2.11-1.01,4.2-1.96,6.28-2.84l-0.97-5.21l2.07,4.74c2.41-1,4.79-1.93,7.11-2.78
		l-0.07-6.56l1.9,5.91c2-0.71,3.97-1.35,5.88-1.94l-1.07-5.76l2.34,5.37c2.22-0.67,4.37-1.27,6.41-1.81l-1.68-6.53l3.76,6
		c11.7-2.92,19.65-3.64,19.65-3.64c-34.56-25.49-70.55,5.16-73.16,27.93c6.47-4.79,13.24-8.77,19.93-12.09L99.46,623.83z"/>
	<path class="st6" d="M318.48,684.94c-5.11-43.2-101.15-116.67-161.52-66.6c0,0,19.15,3.16,46.68,11.56l10.24-13.56l-6.09,14.85
		c4.58,1.44,9.37,3.03,14.31,4.75l10.27-13.6l-6.18,15.06c4.55,1.64,9.22,3.4,13.98,5.3l10.15-11.05l-6.81,12.39
		c3.94,1.61,7.94,3.3,11.97,5.09l7.52-11.72l-4.52,13.06c3.07,1.39,6.16,2.83,9.26,4.34l5.09-7.92l-3.08,8.9
		c3.73,1.83,7.46,3.74,11.2,5.74l4.99-7.77l-3.06,8.82c3.31,1.79,6.62,3.66,9.92,5.59l4.08-6.36l-2.52,7.28
		C302.55,673.94,310.64,679.21,318.48,684.94z"/>
	<path class="st5" d="M74.52,577.67l-1.97,8.81c2.38,0.31,4.74,0.67,7.06,1.06l5.54-9.02l-2.11,9.63c2.84,0.53,5.64,1.11,8.38,1.73
		l4.81-11.21L93.6,590.4c3.67,0.88,7.23,1.83,10.68,2.83l2.48-11.33l-0.1,12.04c4.02,1.21,7.86,2.49,11.52,3.81l4.51-10.52
		l-2.51,11.24c24.02,8.85,39.42,18.74,39.42,18.74c-1.56-61.71-87.17-58.51-113.07-32.33c8.32-0.1,16.45,0.41,24.3,1.38
		L74.52,577.67z"/>
	<path class="st6" d="M193.42,579.4l2.68,12.89c2.79-1.68,5.7-3.39,8.73-5.1l-0.77-11.83l3.66,10.22c3.1-1.71,6.32-3.41,9.63-5.1
		l2.46-13.9l0.96,12.19c3.12-1.53,6.32-3.04,9.59-4.5l-1.4-10.27l3.55,9.31c3.51-1.53,7.1-3.01,10.75-4.42l-1.61-11.78l4.13,10.83
		c8.64-3.21,17.63-6.01,26.84-8.13c-42.36-17.82-104.22-3.99-113.97,58.7c0,0,13.19-11.24,34.16-24.22L193.42,579.4z"/>
	<g>
		<path class="st7" d="M102.83,889.86L102.83,889.86c-7.48-0.64-12.35-7.57-10.74-14.69l4.25-18.78l20.02,1.72l0.15,19.16
			C116.57,884.54,110.31,890.51,102.83,889.86z"/>
		<path class="st8" d="M103.15,886.85L103.15,886.85c-7.48-0.64-12.35-7.07-10.75-13.58l4.14-16.87l19.61,1.69l0.45,17.27
			C116.79,882.01,110.63,887.49,103.15,886.85z"/>
	</g>
	<g>
		<path class="st7" d="M102.97,870.05L102.97,870.05c-7.48-0.64-12.35-7.57-10.74-14.69l4.25-18.78l20.02,1.72l0.15,19.16
			C116.72,864.72,110.45,870.7,102.97,870.05z"/>
		<path class="st8" d="M103.3,867.04L103.3,867.04c-7.48-0.64-12.35-7.07-10.75-13.58l4.14-16.87l19.61,1.69l0.45,17.27
			C116.93,862.2,110.78,867.68,103.3,867.04z"/>
	</g>
	<g>
		<path class="st7" d="M103.65,854.23L103.65,854.23c-7.48-0.55-12.48-7.43-11.03-14.59l3.82-18.88l20.01,1.47l0.58,19.2
			C117.24,848.7,111.13,854.78,103.65,854.23z"/>
		<path class="st8" d="M103.91,851.2L103.91,851.2c-7.48-0.55-12.48-6.93-11.03-13.47l3.76-16.96l19.6,1.44l0.84,17.3
			C117.4,846.17,111.38,851.75,103.91,851.2z"/>
	</g>
	<g>
		<path class="st7" d="M105.02,836.46L105.02,836.46c-7.49-0.21-12.8-6.86-11.68-14.08l2.97-19.03l20.05,0.57l1.44,19.16
			C118.35,830.33,112.52,836.67,105.02,836.46z"/>
		<path class="st8" d="M105.14,833.42L105.14,833.42c-7.49-0.21-12.77-6.36-11.61-12.96l2.99-17.12l19.64,0.55l1.61,17.25
			C118.39,827.79,112.63,833.63,105.14,833.42z"/>
	</g>
	<g>
		<path class="st7" d="M102.89,815.3L102.89,815.3c-7.45-0.82-12.23-7.88-10.56-14.99l4.41-18.75l19.92,2.18l-0.02,19.23
			C116.63,810.26,110.34,816.12,102.89,815.3z"/>
		<path class="st8" d="M103.24,812.28L103.24,812.28c-7.45-0.82-12.24-7.37-10.59-13.87l4.29-16.84l19.52,2.14l0.3,17.34
			C116.87,807.73,110.69,813.1,103.24,812.28z"/>
	</g>
	<g>
		<path class="st7" d="M104.33,789.65L104.33,789.65c-7.28-1.78-11.11-9.4-8.53-16.23l6.81-18.02l19.48,4.75l-2.52,19.06
			C118.61,786.43,111.62,791.42,104.33,789.65z"/>
		<path class="st8" d="M105.08,786.7L105.08,786.7c-7.28-1.78-11.17-8.9-8.7-15.13l6.44-16.14l19.08,4.65l-1.96,17.23
			C119.18,783.96,112.35,788.48,105.08,786.7z"/>
	</g>
	<g>
		<path class="st7" d="M109.24,768.31L109.24,768.31c-7.28-1.78-11.11-9.4-8.53-16.23l6.81-18.02L127,738.8l-2.52,19.06
			C123.53,765.09,116.53,770.09,109.24,768.31z"/>
		<path class="st8" d="M109.99,765.36L109.99,765.36c-7.28-1.78-11.17-8.9-8.7-15.13l6.44-16.14l19.08,4.65l-1.96,17.23
			C124.09,762.62,117.27,767.14,109.99,765.36z"/>
	</g>
	<g>
		<path class="st7" d="M113.74,745.43L113.74,745.43c-7.28-1.78-11.11-9.4-8.53-16.23l6.81-18.02l19.48,4.75l-2.52,19.06
			C128.02,742.22,121.03,747.21,113.74,745.43z"/>
		<path class="st8" d="M114.49,742.48L114.49,742.48c-7.28-1.78-11.17-8.9-8.7-15.13l6.44-16.14l19.08,4.65l-1.96,17.23
			C128.59,739.75,121.76,744.25,114.49,742.48z"/>
	</g>
	<g>
		<path class="st7" d="M120.39,720.18L120.39,720.18c-7.36-1.45-11.49-8.89-9.19-15.82l6.08-18.28l19.68,3.88l-1.75,19.14
			C134.55,716.34,127.75,721.63,120.39,720.18z"/>
		<path class="st8" d="M121.01,717.2L121.01,717.2c-7.36-1.45-11.54-8.39-9.31-14.71l5.78-16.38l19.28,3.8l-1.26,17.28
			C135.01,713.86,128.37,718.65,121.01,717.2z"/>
	</g>
	<g>
		<path class="st7" d="M123.12,700L123.12,700c-7.08-2.46-10.22-10.44-7.05-17.02l8.33-17.35l18.93,6.58l-4.17,18.8
			C137.59,698.15,130.2,702.46,123.12,700z"/>
		<path class="st8" d="M124.12,697.13L124.12,697.13c-7.08-2.46-10.33-9.95-7.32-15.93l7.8-15.5l18.54,6.45l-3.44,17.02
			C138.36,695.73,131.2,699.59,124.12,697.13z"/>
	</g>
	<g>
		<path class="st7" d="M130.61,677.82L130.61,677.82c-6.88-2.98-9.47-11.17-5.89-17.53l9.45-16.74l18.41,7.96l-5.39,18.5
			C145.12,677,137.49,680.78,130.61,677.82z"/>
		<path class="st8" d="M131.79,675.01L131.79,675.01c-6.88-2.98-9.61-10.69-6.23-16.46l8.79-14.94l18.03,7.8l-4.56,16.76
			C146.06,674.65,138.67,677.99,131.79,675.01z"/>
	</g>
	<g>
		<path class="st7" d="M140.31,658.68L140.31,658.68c-6.88-2.98-9.47-11.17-5.89-17.53l9.45-16.74l18.41,7.96l-5.39,18.5
			C154.83,657.87,147.19,661.66,140.31,658.68z"/>
		<path class="st8" d="M141.49,655.88L141.49,655.88c-6.88-2.98-9.61-10.69-6.23-16.46l8.79-14.94l18.03,7.8l-4.56,16.76
			C155.76,655.51,148.37,658.85,141.49,655.88z"/>
	</g>
	<path class="st6" d="M30.26,507.82c7.9,4.05,15.53,8.44,22.86,13.08l10.33-5.73l-7.77,7.37c3.36,2.17,6.66,4.4,9.89,6.65l9.57-6.79
		l-6.93,8.65c2.68,1.91,5.3,3.84,7.88,5.79l11.9-4.56l-9.14,6.67c2.81,2.17,5.57,4.35,8.25,6.55l10.02-8.25l-7.77,10.1
		c2.84,2.35,5.6,4.71,8.29,7.07l11.09-9.14l-8.67,11.27c3.78,3.36,7.4,6.7,10.84,10l10.27-12.21l-8.4,14c3.9,3.76,7.57,7.45,11,11
		l14.53-12.98l-13.01,14.56c19.98,20.9,31.33,36.84,31.33,36.84C162.6,534.6,71.39,493.74,30.26,507.82z"/>
	<path class="st9" d="M159.95,609.93c-16.58-2.72-36.57,14.91-27.34,32.54c9.23,17.63,7.91,20.85,9.88,16.06
		C144.46,653.76,159.95,609.93,159.95,609.93z"/>
	<path class="st4" d="M159.99,610.1c14.4,8.72,18.29,35.19-0.08,42.62s-19.43,10.75-17.86,5.82
		C143.63,653.6,159.99,610.1,159.99,610.1z"/>
</g>
<g id="palmtree2">
	<g>
		<path class="st7" d="M1184.87,902.5L1184.87,902.5c10.86,0.17,19.07-8.65,18.02-18.64l-2.78-26.36l-29.04-0.46l-3.61,26.25
			C1166.07,893.25,1174.01,902.33,1184.87,902.5z"/>
		<path class="st8" d="M1184.93,898.32L1184.93,898.32c10.86,0.17,18.99-7.95,17.84-17.1l-2.96-23.72l-28.45-0.45l-3.72,23.61
			C1166.21,889.76,1174.07,898.15,1184.93,898.32z"/>
	</g>
	<g>
		<path class="st7" d="M1184.93,875.4L1184.93,875.4c10.86,0.17,19.07-8.65,18.02-18.64l-2.78-26.36l-29.04-0.46l-3.61,26.25
			C1166.15,866.16,1174.07,875.23,1184.93,875.4z"/>
		<path class="st8" d="M1185,871.22L1185,871.22c10.86,0.17,18.99-7.95,17.84-17.1l-2.96-23.72l-28.45-0.45l-3.72,23.61
			C1166.27,862.67,1174.14,871.05,1185,871.22z"/>
	</g>
	<g>
		<path class="st7" d="M1187.9,849.15L1187.9,849.15c10.83-0.91,18.12-10.5,16.07-20.34l-5.38-25.95l-28.95,2.43l-0.98,26.49
			C1168.29,841.82,1177.08,850.06,1187.9,849.15z"/>
		<path class="st8" d="M1187.55,844.98L1187.55,844.98c10.83-0.91,18.1-9.81,16.05-18.79l-5.31-23.3l-28.36,2.38l-1.34,23.86
			C1168.07,838.33,1176.74,845.9,1187.55,844.98z"/>
	</g>
	<g>
		<path class="st7" d="M1185.51,822.61L1185.51,822.61c10.83-0.91,18.12-10.5,16.07-20.34l-5.38-25.95l-28.95,2.43l-0.98,26.49
			C1165.89,815.28,1174.69,823.52,1185.51,822.61z"/>
		<path class="st8" d="M1185.16,818.44L1185.16,818.44c10.83-0.91,18.1-9.81,16.05-18.79l-5.31-23.3l-28.36,2.38l-1.34,23.86
			C1165.68,811.79,1174.33,819.35,1185.16,818.44z"/>
	</g>
	<g>
		<path class="st7" d="M1182.4,791.91L1182.4,791.91c10.83-0.78,18.24-10.28,16.32-20.15l-5.07-26.01l-28.98,2.08l-1.3,26.47
			C1162.87,784.34,1171.56,792.69,1182.4,791.91z"/>
		<path class="st8" d="M1182.1,787.74L1182.1,787.74c10.83-0.78,18.22-9.59,16.28-18.6l-5.03-23.37l-28.38,2.04l-1.64,23.85
			C1162.7,780.86,1171.26,788.52,1182.1,787.74z"/>
	</g>
	<g>
		<path class="st7" d="M1179.9,762.72L1179.9,762.72c10.85,0.53,19.34-8.01,18.62-18.03l-1.9-26.43l-29.01-1.43l-4.48,26.12
			C1161.43,752.86,1169.05,762.19,1179.9,762.72z"/>
		<path class="st8" d="M1180.1,758.54L1180.1,758.54c10.85,0.53,19.24-7.32,18.4-16.5l-2.18-23.81l-28.42-1.39l-4.49,23.47
			C1161.68,749.38,1169.25,758.01,1180.1,758.54z"/>
	</g>
	<g>
		<path class="st7" d="M1183.56,728.41L1183.56,728.41c10.77-1.41,17.61-11.33,15.12-21.06l-6.58-25.67l-28.8,3.77l0.24,26.5
			C1163.63,721.99,1172.79,729.82,1183.56,728.41z"/>
		<path class="st8" d="M1183.02,724.26L1183.02,724.26c10.77-1.41,17.63-10.63,15.17-19.51l-6.38-23.04l-28.22,3.69l-0.24,23.9
			C1163.25,718.52,1172.25,725.67,1183.02,724.26z"/>
	</g>
	<g>
		<path class="st7" d="M1184.17,701.05L1184.17,701.05c10.33-3.36,15.24-14.36,11-23.48l-11.17-24.03l-27.63,8.99l5.1,26.01
			C1163.4,698.4,1173.84,704.41,1184.17,701.05z"/>
		<path class="st8" d="M1182.87,697.08L1182.87,697.08c10.33-3.36,15.38-13.68,11.33-21.97l-10.49-21.47l-27.06,8.8l4.15,23.54
			C1162.39,695.05,1172.55,700.43,1182.87,697.08z"/>
	</g>
	<g>
		<path class="st7" d="M1174.87,666.74L1174.87,666.74c10.53-2.64,16.19-13.28,12.59-22.66l-9.49-24.74l-28.18,7.06l3.3,26.29
			C1154.32,662.67,1164.33,669.38,1174.87,666.74z"/>
		<path class="st8" d="M1173.85,662.69L1173.85,662.69c10.53-2.64,16.28-12.59,12.82-21.13l-8.99-22.15l-27.6,6.91l2.51,23.77
			C1153.55,659.26,1163.31,665.32,1173.85,662.69z"/>
	</g>
	<g>
		<path class="st7" d="M1168.9,639.89L1168.9,639.89c10.6-2.38,16.51-12.88,13.14-22.35l-8.88-24.96l-28.34,6.36l2.65,26.36
			C1148.47,635.31,1158.3,642.27,1168.9,639.89z"/>
		<path class="st8" d="M1167.98,635.82L1167.98,635.82c10.6-2.38,16.59-12.19,13.33-20.81l-8.45-22.36l-27.77,6.23l1.93,23.82
			C1147.78,631.89,1157.38,638.2,1167.98,635.82z"/>
	</g>
	<g>
		<path class="st7" d="M1164.24,608.34L1164.24,608.34c10.4-3.11,15.58-13.99,11.55-23.21l-10.6-24.29l-27.83,8.32l4.47,26.12
			C1143.54,605.19,1153.84,611.45,1164.24,608.34z"/>
		<path class="st8" d="M1163.04,604.33L1163.04,604.33c10.4-3.11,15.7-13.31,11.85-21.68l-9.98-21.72l-27.26,8.15l3.58,23.64
			C1142.61,601.82,1152.64,607.44,1163.04,604.33z"/>
	</g>
	<g>
		<path class="st7" d="M1153.7,580.73L1153.7,580.73c10.4-3.11,15.58-13.99,11.55-23.21l-10.6-24.29l-27.83,8.32l4.47,26.12
			C1133,577.58,1143.29,583.85,1153.7,580.73z"/>
		<path class="st8" d="M1152.5,576.73L1152.5,576.73c10.4-3.11,15.7-13.31,11.85-21.68l-9.98-21.72l-27.26,8.15l3.58,23.64
			C1132.07,574.22,1142.1,579.84,1152.5,576.73z"/>
	</g>
	<path class="st3" d="M1216.37,402.15c-3-56.78,127.56-51.38,143.63-19.02C1286.09,359.95,1227.03,392.39,1216.37,402.15z"/>
	<path class="st4" d="M1139.32,500.97c-14.45-94.87,67.04-178.07,200.88-132.95C1196.02,372.36,1116.61,473.09,1139.32,500.97z"/>
	<path class="st3" d="M1189.98,460.15c12.79-39.49,115.87-14.92,117.31,26.93C1247.11,435.05,1188.04,466.16,1189.98,460.15z"/>
	<path class="st4" d="M1135.11,499.8c-1.04-65.73,82.44-113.64,168.06-28.39C1172.92,420.46,1135.11,499.8,1135.11,499.8z"/>
	<path class="st3" d="M1005.42,511.31c-35.48-30.49-111.79,17.66-113.34,66.12C952.6,489.35,1005.42,511.31,1005.42,511.31z"/>
	<path class="st4" d="M1138.7,501.75c-45.59-66.64-201.49-61.19-243.72,68.57C960.62,474.45,1138.7,501.75,1138.7,501.75z"/>
	<path class="st3" d="M1061.89,529.96c-46.12-0.56-61.04,81.55-49.25,107.78C1031.8,586.11,1061.89,529.96,1061.89,529.96z"/>
	<path class="st4" d="M1145.56,508.43c-52.49-31.75-146.83,12.44-134.89,120.97C1020.22,522.49,1145.56,508.43,1145.56,508.43z"/>
	<path class="st3" d="M1089.85,433.13c14.74-40.47-110.91-46.66-116.62-15.4C1033.74,394.79,1092.77,435.05,1089.85,433.13z"/>
	<path class="st4" d="M1136.47,501.73c16.08-59.2-53.77-155.31-153.42-96.4C1114.31,383.66,1136.47,501.73,1136.47,501.73z"/>
	<path class="st3" d="M1198.63,491.69c25.13,2,54.27,41.21,43.15,64.86C1229.53,526.3,1198.63,491.69,1198.63,491.69z"/>
	<path class="st4" d="M1144.34,496.24c33.81-35,88.34-26.41,100.1,48.62C1217.41,492.95,1144.34,496.24,1144.34,496.24z"/>
	<path class="st5" d="M1111.04,516.15l8.09,8.81c-4.24,2.87-8.86,6.11-13.76,9.68l-12.86-10.69l11.04,12.02
		c-4.8,3.54-9.85,7.39-15.06,11.55l-10.48-12.41l7.68,14.66c-5.11,4.15-10.36,8.57-15.66,13.27l-16.76-11.87l15.2,13.26
		c-4.09,3.66-8.2,7.48-12.31,11.47l-11-7l8.99,8.97c-15.35,15.08-30.49,32.34-43.47,51.51c-10.32-44.61,57.85-150.14,134.89-120.97
		c0,0-9.94,5.43-25.04,15.6L1111.04,516.15z"/>
	<path class="st5" d="M1220.29,517.37l-4.53,6.79c-2.85-1.68-5.69-3.28-8.52-4.79l2.32-7l-3.81,6.21c-3.28-1.72-6.53-3.32-9.72-4.81
		l1.26-8.99l-3.77,7.84c-2.75-1.25-5.46-2.4-8.09-3.49l2.56-7.75l-4.32,7.04c-3.07-1.24-6.04-2.36-8.87-3.38l3.57-8.72l-6.46,7.7
		c-16.28-5.65-27.56-7.76-27.56-7.76c54.14-30.08,100.37,17.01,100.1,48.62c-8.45-7.48-17.46-13.89-26.47-19.38L1220.29,517.37z"/>
	<path class="st6" d="M894.99,570.31c15-58.53,165.9-145.74,243.72-68.57c0,0-28.06,1.64-69.07,9.28l-12.31-20.04l6.11,21.22
		c-6.83,1.34-13.98,2.83-21.39,4.5l-12.35-20.11l6.2,21.52c-6.83,1.6-13.85,3.37-21.01,5.29l-12.62-16.58l7.58,17.96
		c-5.94,1.64-11.98,3.41-18.08,5.29l-8.73-17.13l4.18,18.54c-4.66,1.47-9.34,3.02-14.06,4.64l-5.9-11.58l2.85,12.64
		c-5.68,1.98-11.38,4.08-17.1,6.29l-5.79-11.36l2.83,12.52c-5.08,2-10.15,4.08-15.22,6.27l-4.74-9.3l2.33,10.34
		C919.8,557.47,907.25,563.56,894.99,570.31z"/>
	<path class="st5" d="M1264.27,457.57l1.27,12.36c-3.47,0.1-6.92,0.25-10.32,0.46l-6.35-13.14l1.32,13.5
		c-4.18,0.32-8.29,0.73-12.33,1.2l-4.91-16.06l1.68,16.45c-5.43,0.69-10.71,1.49-15.84,2.38l-1.55-15.89l-1.98,16.53
		c-5.98,1.1-11.73,2.32-17.21,3.6l-4.61-15.06l1.62,15.77c-36.06,8.74-59.93,20.15-59.93,20.15
		c13.17-84.39,135.52-67.94,168.06-28.39c-11.93-1.32-23.69-1.76-35.13-1.54L1264.27,457.57z"/>
	<path class="st6" d="M1093.25,443.2l-6.13,17.3c-3.71-2.7-7.59-5.45-11.62-8.22l3.21-16.11l-7.07,13.51
		c-4.15-2.79-8.46-5.57-12.92-8.34l-1.07-19.4l-3.54,16.58c-4.21-2.54-8.53-5.06-12.97-7.52l3.83-13.88l-6.75,12.28
		c-4.77-2.6-9.66-5.13-14.66-7.57l4.4-15.94l-7.85,14.28c-11.83-5.63-24.25-10.73-37.09-14.93c63.98-18.46,150.35,9.21,153.25,96.56
		c0,0-16.95-17.27-44.76-38.04L1093.25,443.2z"/>
	<rect x="189.45" y="216" class="st10" width="31.46" height="32.11"/>
	<path class="st6" d="M1340.19,368.02c-56.58-25.1-216.54,28.42-200.88,132.95c0,0,20.46-21.67,54.87-48.77l-10.07-21.93
		l13.09,19.57c4.12-3.21,8.44-6.49,12.93-9.81l-6.23-21.03l8.27,19.53c6.09-4.46,12.49-8.99,19.18-13.53l-10.45-16.68l14.31,14.09
		c4.28-2.85,8.66-5.69,13.15-8.52l-9.37-14.96l12.93,12.73c4.24-2.63,8.58-5.24,13-7.81l-11.94-10.44l16.28,7.93
		c4.05-2.31,8.16-4.58,12.34-6.83l-8.43-12.84l12.53,10.66c5.04-2.64,10.16-5.22,15.38-7.72l-9.85-11.19l13.82,9.31
		C1316.4,377.42,1328.14,372.45,1340.19,368.02z"/>
	<path class="st9" d="M1135.89,489.78c24.29-1.4,49.87,25.6,33.49,48.49c-16.38,22.88-15.04,27.48-17.03,20.64
		C1150.37,552.07,1135.89,489.78,1135.89,489.78z"/>
	<path class="st4" d="M1135.8,490c-22.21,9.94-32.5,45.68-7.43,58.45c25.07,12.78,26,17.48,24.62,10.49
		C1151.6,551.96,1135.8,490,1135.8,490z"/>
</g>
<g id="sun">
	
		<radialGradient id="SVGID_00000111189466236857689560000010623702775749361844_" cx="335.7877" cy="692.1644" r="82.5" gradientTransform="matrix(1 0 0 -1 0 1026)" gradientUnits="userSpaceOnUse">
		<stop  offset="0" style="stop-color:#FFA81E;stop-opacity:0.7"/>
		<stop  offset="0.6761" style="stop-color:#FF9F1E"/>
		<stop  offset="0.7719" style="stop-color:#FF9A1E"/>
		<stop  offset="0.8904" style="stop-color:#FF8B1E"/>
		<stop  offset="1" style="stop-color:#FF761E"/>
	</radialGradient>
	<circle style="fill:url(#SVGID_00000111189466236857689560000010623702775749361844_);" cx="335.79" cy="333.84" r="82.5"/>
</g>
<g>
	<path class="st12" d="M295.37,197.61H111.1c-16.52,0-29.92-13.39-29.92-29.92l0,0c0-16.52,13.39-29.92,29.92-29.92h184.27
		c16.52,0,29.92,13.39,29.92,29.92l0,0C325.29,184.22,311.9,197.61,295.37,197.61z"/>
	<circle class="st12" cx="237.9" cy="131.48" r="36.27"/>
	<ellipse class="st12" cx="179.71" cy="115.48" rx="35.11" ry="34.96"/>
	<ellipse class="st12" cx="128.89" cy="132.08" rx="22.89" ry="22.86"/>
	<circle class="st12" cx="287.99" cy="139.89" r="19.62"/>
</g>
<g>
	<path class="st12" d="M1255.3,258.28h-150.99c-13.54,0-24.51-10.98-24.51-24.51l0,0c0-13.54,10.97-24.51,24.51-24.51h150.99
		c13.54,0,24.51,10.97,24.51,24.51l0,0C1279.81,247.31,1268.83,258.28,1255.3,258.28z"/>
	<circle class="st12" cx="1208.21" cy="204.1" r="29.72"/>
	<ellipse class="st12" cx="1160.52" cy="190.99" rx="28.77" ry="28.65"/>
	<ellipse class="st12" cx="1118.89" cy="204.59" rx="18.75" ry="18.73"/>
	<circle class="st12" cx="1249.25" cy="210.99" r="16.07"/>
</g>
</svg>
