<?xml version="1.0" encoding="utf-8"?>
<!-- Generator: Adobe Illustrator 27.6.1, SVG Export Plug-In . SVG Version: 6.00 Build 0)  -->
<svg version="1.1" id="Layer_1" xmlns="http://www.w3.org/2000/svg" xmlns:xlink="http://www.w3.org/1999/xlink" x="0px" y="0px"
	 viewBox="0 0 720 1280" style="enable-background:new 0 0 720 1280;" xml:space="preserve">
<style type="text/css">
	.st0{fill:none;stroke:#000000;stroke-miterlimit:10;}
	.st1{fill:url(#SVGID_1_);}
	.st2{fill:url(#SVGID_00000098190405598360277830000011550179076050104973_);}
	.st3{fill:#FFFFFF;}
	.st4{fill:none;}
	.st5{fill:#42210B;}
	.st6{fill:#754C24;}
	.st7{fill:#006837;}
	.st8{fill:#8CC63F;}
	.st9{fill:#008C37;}
	.st10{fill:#559545;}
	.st11{fill:#39B54A;}
</style>
<g id="sky">
	<rect x="2.58" y="-1.02" class="st0" width="717.42" height="785.02"/>
	
		<linearGradient id="SVGID_1_" gradientUnits="userSpaceOnUse" x1="360.73" y1="1660.62" x2="360.73" y2="2440.6001" gradientTransform="matrix(1 0 0 -1 0 2440)">
		<stop  offset="0" style="stop-color:#CCE0F4;stop-opacity:0.5"/>
		<stop  offset="0.588" style="stop-color:#D0DEEA;stop-opacity:0.8"/>
		<stop  offset="0.6334" style="stop-color:#C7DBE9;stop-opacity:0.8"/>
		<stop  offset="0.7061" style="stop-color:#B0D2E7;stop-opacity:0.8"/>
		<stop  offset="0.7967" style="stop-color:#8AC4E3;stop-opacity:0.8"/>
		<stop  offset="0.9008" style="stop-color:#56B1DD;stop-opacity:0.8"/>
		<stop  offset="1" style="stop-color:#1E9CD7;stop-opacity:0.8"/>
	</linearGradient>
	<rect x="2.02" y="-0.6" class="st1" width="717.42" height="779.98"/>
</g>
<g id="beach">
	
		<linearGradient id="SVGID_00000127743555183093348420000017846061130620557736_" gradientUnits="userSpaceOnUse" x1="360" y1="1162" x2="360" y2="1813" gradientTransform="matrix(1 0 0 -1 0 2440)">
		<stop  offset="0" style="stop-color:#EDDFB2"/>
		<stop  offset="0.2821" style="stop-color:#E0E5D1"/>
		<stop  offset="0.5073" style="stop-color:#D4EBEC"/>
		<stop  offset="0.6045" style="stop-color:#C7E6E7"/>
		<stop  offset="0.7859" style="stop-color:#A3D9DA"/>
		<stop  offset="1" style="stop-color:#72C6C7"/>
	</linearGradient>
	<rect x="2" y="627" style="fill:url(#SVGID_00000127743555183093348420000017846061130620557736_);" width="716" height="651"/>
</g>
<g>
	<path class="st3" d="M200.08,129.48H58.84c-12.66,0-22.93-10.98-22.93-24.55l0,0c0-13.55,10.26-24.55,22.93-24.55h141.23
		c12.66,0,22.93,10.98,22.93,24.55l0,0C223.01,118.5,212.75,129.48,200.08,129.48z"/>
	<ellipse class="st3" cx="156.03" cy="75.23" rx="27.8" ry="29.76"/>
	<ellipse class="st3" cx="111.42" cy="62.1" rx="26.91" ry="28.68"/>
	<ellipse class="st3" cx="72.48" cy="75.72" rx="17.54" ry="18.75"/>
	<ellipse class="st3" cx="194.42" cy="82.12" rx="15.04" ry="16.1"/>
</g>
<g>
	<path class="st3" d="M616.26,250.48H525.8c-8.11,0-14.68-6.58-14.68-14.68l0,0c0-8.11,6.57-14.68,14.68-14.68h90.46
		c8.11,0,14.68,6.57,14.68,14.68l0,0C630.95,243.91,624.37,250.48,616.26,250.48z"/>
	<circle class="st3" cx="588.05" cy="218.02" r="17.81"/>
	<ellipse class="st3" cx="559.48" cy="210.17" rx="17.23" ry="17.17"/>
	<ellipse class="st3" cx="534.54" cy="218.32" rx="11.23" ry="11.22"/>
	<circle class="st3" cx="612.64" cy="222.15" r="9.62"/>
</g>
<g id="Layer_3">
	<g>
		<path class="st4" d="M585.87,623.06c-0.36,1.22-0.69,2.41-1,3.6c0.05,0.59,0.08,1.19,0.12,1.78c0.18-0.83,0.37-1.65,0.56-2.47
			C585.66,624.99,585.76,624.02,585.87,623.06z"/>
		<path class="st4" d="M702.02,510.3l7.32,16c-3.63,2.79-7.2,5.63-10.72,8.51l-14.13-9.88l10.36,13.01
			c-3.84,3.21-7.61,6.46-11.3,9.74l-11.23-15.87l8.13,18.64c-3.91,3.52-7.71,7.07-11.42,10.62l-12.43-17.56l9.08,20.79
			c-0.99,0.97-1.97,1.93-2.94,2.9c17.24,4.81,36.07,17.83,55.25,41.52v-88.88c-1.7,1.24-3.41,2.49-5.09,3.75L702.02,510.3z"/>
		<path class="st4" d="M641.85,556.82l1.72,8.31c0.24-0.02,0.48-0.03,0.72-0.05L641.85,556.82z"/>
		<path class="st4" d="M632.75,612.75l1.19,16.56c0.84,0.21,1.67,0.47,2.51,0.76L632.75,612.75z"/>
		<path class="st4" d="M516.48,656.2l2.96,14.73c1.38-1.12,2.77-2.19,4.18-3.19l-5-11.69C517.91,656.09,517.2,656.15,516.48,656.2z"
			/>
		<path class="st4" d="M561.46,678.32l2.43,3.79c0.03-0.29,0.06-0.59,0.1-0.88l-2.47-2.94
			C561.49,678.29,561.47,678.31,561.46,678.32z"/>
		<path class="st5" d="M639.95,1122.45l-0.59-8.09c-0.03,0.08-0.06,0.15-0.09,0.23L639.95,1122.45z"/>
		<path class="st5" d="M612.16,1115.03l-0.59,6.17l0.66-6.01C612.2,1115.14,612.18,1115.09,612.16,1115.03z"/>
		<path class="st5" d="M625.38,1154.25c-8.58-0.2-15-8.86-15.16-18.96l-0.02,0.23c-1.19,12.41,5.69,23.72,15.13,23.94
			c9.43,0.21,16.56-10.78,15.65-23.24l-0.02-0.3C640.59,1146.06,633.97,1154.45,625.38,1154.25z"/>
		<path class="st6" d="M625.38,1125.69c-5.75-0.13-10.54-4.39-13.15-10.5l-0.66,6.01l-1.21,11.04c-0.11,1.03-0.16,2.04-0.14,3.05
			c0.16,10.1,6.59,18.77,15.16,18.96c8.6,0.2,15.22-8.2,15.57-18.33c0.04-0.98,0.02-1.98-0.08-2.99l-0.92-10.5l-0.68-7.86
			C636.66,1121.23,631.5,1125.83,625.38,1125.69z"/>
		<path class="st5" d="M612.34,1079.93l-0.72,7.5l0.8-7.24C612.39,1080.1,612.37,1080.01,612.34,1079.93z"/>
		<path class="st5" d="M640.01,1088.68l-0.38-5.19c-0.02,0.05-0.04,0.08-0.06,0.13L640.01,1088.68z"/>
		<path class="st5" d="M625.43,1120.49c-8.58-0.2-15-8.85-15.16-18.96l-0.02,0.23c-0.46,4.78,0.29,9.4,1.91,13.28
			c0.02,0.05,0.05,0.11,0.07,0.16c2.61,6.11,7.41,10.37,13.15,10.5c6.13,0.14,11.29-4.46,13.89-11.12c0.03-0.08,0.06-0.15,0.09-0.23
			c1.34-3.53,1.98-7.62,1.66-11.9l-0.02-0.3C640.65,1112.28,634.03,1120.68,625.43,1120.49z"/>
		<path class="st6" d="M627.95,1092.97c-7.03,0.85-13.08-4.69-15.54-12.78l-0.8,7.24l-1.21,11.05c-0.11,1.03-0.16,2.04-0.14,3.05
			c0.16,10.11,6.59,18.77,15.16,18.96c8.6,0.2,15.22-8.2,15.57-18.33c0.04-0.98,0.02-1.98-0.08-2.99l-0.92-10.49l-0.44-5.06
			C637.06,1088.73,632.94,1092.37,627.95,1092.97z"/>
		<path class="st5" d="M611.77,1050.77l-0.16,6.23l0.24-6.08C611.83,1050.87,611.8,1050.82,611.77,1050.77z"/>
		<path class="st5" d="M627.65,1087.77c-8.55,1.04-15.55-6.68-16.4-16.72l-0.01,0.26c-0.08,3.05,0.32,5.96,1.1,8.61
			c0.02,0.09,0.05,0.17,0.08,0.26c2.46,8.09,8.51,13.63,15.54,12.78c4.99-0.6,9.1-4.24,11.61-9.36c0.02-0.05,0.04-0.08,0.06-0.13
			c2.18-4.51,3.12-10.16,2.28-15.87l-0.04-0.27C642.21,1077.46,636.21,1086.74,627.65,1087.77z"/>
		<path class="st5" d="M639.93,1053.87l-1.01-6.98c-0.02,0.07-0.05,0.14-0.07,0.21L639.93,1053.87z"/>
		<path class="st6" d="M625.87,1059.88c-5.86,0.71-11.03-3.02-14.02-8.96l-0.24,6.08l-0.44,11.02c-0.04,1.03-0.02,2.05,0.07,3.04
			c0.85,10.04,7.85,17.76,16.4,16.72c8.56-1.03,14.56-10.32,14.22-20.43c-0.03-0.99-0.13-2-0.29-3l-1.67-10.48l-1.07-6.77
			C636.68,1053.97,631.91,1059.16,625.87,1059.88z"/>
		<path class="st5" d="M625.57,1054.69c-8.55,1.04-15.55-6.68-16.4-16.72l-0.01,0.26c-0.12,4.65,0.86,8.98,2.61,12.53
			c0.02,0.05,0.05,0.11,0.08,0.16c2.99,5.94,8.16,9.67,14.02,8.96c6.04-0.73,10.81-5.92,12.98-12.79c0.02-0.07,0.05-0.14,0.07-0.21
			c1.16-3.78,1.54-8.04,0.92-12.35l-0.04-0.27C640.13,1044.37,634.13,1053.66,625.57,1054.69z"/>
		<path class="st5" d="M609.8,1013.51l-0.27,10.39l0.4-10.17C609.89,1013.67,609.84,1013.58,609.8,1013.51z"/>
		<path class="st5" d="M637.85,1020.79l-1.66-11.51c-0.04,0.11-0.08,0.23-0.11,0.34L637.85,1020.79z"/>
		<path class="st6" d="M623.18,1021.63c-5.42,0.56-10.22-2.67-13.24-7.89l-0.4,10.17l-0.44,11.02c-0.04,1.04-0.02,2.05,0.07,3.04
			c0.85,10.04,7.84,17.75,16.4,16.72s14.56-10.32,14.22-20.43c-0.03-0.99-0.13-2-0.29-3l-1.66-10.47l-1.77-11.17
			C633.76,1016.17,629.05,1021.02,623.18,1021.63z"/>
		<path class="st5" d="M622.91,1016.43c-8.56,0.88-15.49-6.95-16.26-17l-0.01,0.26c-0.18,5.2,1.02,10.02,3.15,13.83
			c0.05,0.08,0.09,0.15,0.13,0.23c3.02,5.22,7.82,8.45,13.24,7.89c5.87-0.61,10.59-5.45,12.9-12c0.04-0.11,0.08-0.23,0.11-0.34
			c1.3-3.86,1.77-8.28,1.16-12.78l-0.05-0.34C637.59,1006.32,631.5,1015.54,622.91,1016.43z"/>
		<path class="st5" d="M635.54,983.23l-0.98-7.16c-0.02,0.05-0.05,0.11-0.08,0.16L635.54,983.23z"/>
		<path class="st5" d="M607.58,972.66l-0.44,12.71l0.59-12.27C607.67,972.95,607.62,972.81,607.58,972.66z"/>
		<path class="st6" d="M621,985.24c-6.05-0.43-10.95-5.38-13.29-12.14l-0.59,12.27l-0.53,11.02c-0.05,1.03-0.03,2.05,0.05,3.04
			c0.77,10.06,7.7,17.88,16.26,17c8.58-0.89,14.68-10.11,14.39-20.25c-0.03-0.97-0.11-1.95-0.26-2.93l-1.5-10.02l-1.05-7.01
			C631.6,981.94,626.67,985.65,621,985.24z"/>
		<path class="st5" d="M609.63,933.95l-1.47,12.33l1.61-12.07C609.72,934.13,609.67,934.04,609.63,933.95z"/>
		<path class="st5" d="M636.48,948.83l-0.85-16.85c-0.07,0.16-0.13,0.31-0.2,0.47L636.48,948.83z"/>
		<path class="st5" d="M621.18,980.04c-8.57-0.61-14.78-9.55-14.71-19.65l-0.03,0.23c-0.51,4.24-0.06,8.4,1.13,12.05
			c0.05,0.14,0.1,0.29,0.15,0.44c2.34,6.76,7.22,11.72,13.29,12.14c5.67,0.4,10.6-3.3,13.49-9.03c0.03-0.05,0.05-0.11,0.08-0.16
			c1.86-3.76,2.85-8.38,2.61-13.29l-0.02-0.29C636.58,972.56,629.77,980.64,621.18,980.04z"/>
		<path class="st6" d="M624.19,942.47c-5.91,1.11-11.27-2.38-14.42-8.25l-1.61,12.07l-1.47,11.03c-0.14,1.03-0.2,2.05-0.21,3.06
			c-0.07,10.1,6.15,19.05,14.71,19.65c8.58,0.61,15.4-7.47,15.98-17.57c0.06-0.98,0.06-1.99-0.01-3l-0.68-10.63l-1.04-16.39
			C633.09,937.68,629.12,941.55,624.19,942.47z"/>
		<path class="st5" d="M634.86,902.49l-0.92-5.19c-0.02,0.05-0.03,0.09-0.05,0.14L634.86,902.49z"/>
		<path class="st5" d="M606.65,899.08l0.05,8.6l0.06-8.33C606.73,899.26,606.68,899.17,606.65,899.08z"/>
		<path class="st5" d="M623.72,937.3c-8.52,1.6-15.75-5.65-16.92-15.62v0.27c0.03,4.49,1.07,8.63,2.83,12
			c0.05,0.09,0.09,0.17,0.14,0.26c3.16,5.87,8.51,9.37,14.42,8.25c4.93-0.92,8.91-4.79,11.25-10.02c0.07-0.15,0.14-0.31,0.2-0.47
			c1.96-4.61,2.67-10.21,1.67-15.76l-0.05-0.28C637.93,926.02,632.23,935.7,623.72,937.3z"/>
		<path class="st6" d="M624.71,908.37c-7.22,3.36-14.51-0.84-17.95-9.03l-0.06,8.33l-0.08,10.98c-0.01,1.03,0.05,2.04,0.17,3.02
			c1.17,9.97,8.4,17.22,16.92,15.62c8.52-1.6,14.22-11.28,13.55-21.37c-0.07-0.98-0.19-1.98-0.38-2.96l-2.02-10.48l-0.98-5.05
			C632.08,902.36,628.91,906.41,624.71,908.37z"/>
		<polygon class="st5" points="601.68,859.84 601.68,859.83 600.56,860.35 603.11,878.98 600.81,860.25 		"/>
		<path class="st5" d="M623.59,903.42c-8.16,3.81-16.21-1.42-18.63-10.93l0.04,0.28c0.32,2.28,0.88,4.4,1.65,6.31
			c0.04,0.09,0.08,0.18,0.11,0.27c3.44,8.19,10.72,12.39,17.95,9.03c4.21-1.96,7.38-6.02,9.18-10.93c0.02-0.05,0.03-0.09,0.05-0.14
			c2.01-5.56,2.27-12.2,0.33-18.2l-0.09-0.29C636.13,888.57,631.77,899.6,623.59,903.42z"/>
		<path class="st5" d="M630.19,866.53l-3.69-11.39c-0.04,0.08-0.07,0.17-0.11,0.26L630.19,866.53z"/>
		<path class="st6" d="M616.63,865.6c-5.76,2.07-11.34-0.48-14.95-5.77l-0.87,0.41l2.3,18.74l1.3,10.6
			c0.12,1.01,0.31,1.98,0.55,2.91c2.42,9.51,10.47,14.73,18.63,10.93c8.18-3.82,12.54-14.86,10.58-24.6
			c-0.19-0.95-0.44-1.88-0.74-2.79l-3.24-9.51l-3.79-11.14C624.37,860.22,620.98,864.04,616.63,865.6z"/>
		<path class="st5" d="M595.63,824.19l0.83,9.43l-0.68-9.15C595.73,824.38,595.68,824.28,595.63,824.19z"/>
		<path class="st5" d="M615.75,860.55c-8.31,2.98-16.06-2.99-18.05-12.66l0.02,0.19c0.4,4.6,1.84,8.65,3.97,11.75l0,0
			c3.61,5.28,9.19,7.84,14.95,5.77c4.35-1.56,7.74-5.38,9.76-10.21c0.04-0.08,0.07-0.17,0.11-0.26c2.16-5.29,2.69-11.75,1.07-17.78
			l-0.08-0.32C628.98,846.95,624.1,857.55,615.75,860.55z"/>
		<path class="st5" d="M624.17,824.61l-1.55-5.78c-0.02,0.05-0.03,0.11-0.05,0.16L624.17,824.61z"/>
		<path class="st6" d="M611.45,832.14c-6.27,2.02-12.23-1.36-15.67-7.67l0.68,9.15l0.83,11.24c0.08,1.04,0.22,2.06,0.42,3.03
			c1.98,9.67,9.73,15.64,18.05,12.66c8.35-3,13.23-13.6,11.74-23.52c-0.14-0.95-0.34-1.89-0.6-2.82l-2.72-9.61l-1.59-5.62
			C620.75,825.29,616.78,830.42,611.45,832.14z"/>
		<path class="st5" d="M590.87,785.83l0.95,13.68l-0.75-13.32C591,786.07,590.93,785.95,590.87,785.83z"/>
		<path class="st5" d="M610.66,827.06c-8.37,2.7-16.03-3.56-17.84-13.33l0.02,0.23c0.27,3.85,1.27,7.34,2.79,10.23
			c0.05,0.09,0.1,0.19,0.15,0.28c3.44,6.31,9.4,9.69,15.67,7.67c5.34-1.72,9.3-6.85,11.12-13.15c0.02-0.05,0.03-0.11,0.05-0.16
			c1.28-4.53,1.46-9.65,0.25-14.55l-0.07-0.29C624.11,813.95,619.05,824.35,610.66,827.06z"/>
		<path class="st5" d="M619.63,791.23l-2.49-10.06c-0.03,0.08-0.06,0.17-0.09,0.25L619.63,791.23z"/>
		<path class="st6" d="M607.4,792.81c-6.34,2.72-12.63-0.32-16.33-6.62l0.75,13.32l0.63,11.2c0.06,1.04,0.18,2.04,0.36,3.02
			c1.81,9.77,9.46,16.03,17.84,13.33c8.4-2.7,13.46-13.11,12.14-23.06c-0.13-0.96-0.32-1.92-0.56-2.88l-2.61-9.89l-2.58-9.81
			C615.21,786.63,611.86,790.9,607.4,792.81z"/>
		<path class="st5" d="M606.37,787.82c-8.26,3.54-16.24-2.01-18.46-11.66l0.05,0.38c0.42,3.52,1.45,6.68,2.92,9.29
			c0.07,0.12,0.14,0.23,0.2,0.35c3.7,6.31,10,9.34,16.33,6.62c4.46-1.92,7.8-6.18,9.64-11.4c0.03-0.08,0.06-0.17,0.09-0.25
			c1.8-5.3,2.05-11.55,0.31-17.28l-0.08-0.24C619.13,773.44,614.59,784.29,606.37,787.82z"/>
		<path class="st5" d="M613.42,750.65l-3.95-12.99c0,0.21,0,0.43,0,0.64L613.42,750.65z"/>
		<path class="st5" d="M585.52,756.2l0.85,7.1l-0.74-7C585.59,756.27,585.56,756.24,585.52,756.2z"/>
		<path class="st6" d="M598.25,758.4c-4.54,1.95-9.06,0.95-12.62-2.1l0.74,7l1.06,10.04c0.11,0.98,0.26,1.92,0.47,2.83
			c2.22,9.65,10.21,15.19,18.46,11.66c8.22-3.53,12.77-14.37,11-24.17c-0.17-0.97-0.41-1.92-0.71-2.86l-3.24-10.14l-3.96-12.36
			C609.25,747.13,605.03,755.49,598.25,758.4z"/>
		<path class="st5" d="M575.9,717.9l1.3,10.9l-1.13-10.78C576.01,717.99,575.96,717.94,575.9,717.9z"/>
		<path class="st5" d="M597.21,753.41c-8.25,3.54-16.23-2-18.46-11.64l0.05,0.36c0.73,6.08,3.27,11.05,6.73,14.07
			c0.04,0.03,0.07,0.07,0.11,0.1c3.56,3.05,8.08,4.06,12.62,2.1c6.77-2.91,11-11.27,11.21-20.11c0.01-0.21,0-0.43,0-0.64
			c0.01-2.74-0.37-5.52-1.18-8.19l-0.08-0.26C609.99,739.02,605.44,749.88,597.21,753.41z"/>
		<path class="st6" d="M597.97,734.62c-0.17,2.81-4-3.48-21.72-16.46c-0.07-0.05-0.13-0.1-0.19-0.14l1.13,10.78l1.07,10.12
			c0.11,0.98,0.26,1.93,0.48,2.84c2.23,9.64,10.21,15.18,18.46,11.64c8.23-3.53,12.78-14.4,11-24.2c-0.17-0.95-0.41-1.9-0.71-2.83
			l-2.24-6.98C599.91,731.36,598.76,735.84,597.97,734.62z"/>
		<polygon class="st7" points="717.71,500.04 717.99,500.5 717.99,500.3 717.72,500.04 		"/>
		<path class="st8" d="M585.87,623.06c9.33-80.77,79.47-130.03,132.12-136.65v-7.15c-79.85-13.63-130.06,56.06-133.47,143.3
			c0.14,1.37,0.26,2.73,0.36,4.1C585.18,625.47,585.51,624.27,585.87,623.06z"/>
		<polygon class="st8" points="717.7,500.02 717.71,500.04 717.72,500.04 		"/>
		<path class="st7" d="M710.17,620.34c2.59,1.98,5.2,4.18,7.82,6.62v-6.07C715.37,620.64,712.77,620.46,710.17,620.34z"/>
		<path class="st7" d="M694.43,607.01l0.27,3.72c0.31,0.15,0.62,0.29,0.92,0.44l-0.87-4.06
			C694.65,607.08,694.54,607.04,694.43,607.01z"/>
		<path class="st7" d="M680.98,605.65c0.11,0.03,0.23,0.06,0.35,0.09l-0.42-1.25L680.98,605.65z"/>
		<path class="st7" d="M667.12,603.46c0.03,0,0.07,0,0.1,0.01l-0.14-0.68L667.12,603.46z"/>
		<path class="st8" d="M585,628.43c0.06,0.94,0.11,1.87,0.15,2.8c0.11-1.77,0.25-3.53,0.42-5.28
			C585.37,626.78,585.18,627.6,585,628.43z"/>
		<path class="st8" d="M629.43,585.74c0.62-0.22,1.24-0.44,1.87-0.64l-6.63-14.23L629.43,585.74z"/>
		<path class="st8" d="M662.75,567.2c-4.75,4.69-9.33,9.36-13.71,13.97l-4.74-16.07c-0.24,0.02-0.48,0.03-0.72,0.05l3.49,16.89
			c26.02-2.13,53.74,9.1,70.93,26.86v-0.17C698.82,585.03,679.99,572.02,662.75,567.2z"/>
		<path class="st8" d="M694.28,604.89l0.15,2.12c0.11,0.04,0.22,0.08,0.32,0.11L694.28,604.89z"/>
		<path class="st7" d="M373.55,745.42c0-0.01,0-0.01,0-0.02l0,0c0.59-3.29,1.42-6.65,2.46-10.06c2.97-11.31,6.44-21.82,10.34-31.52
			c-8.99,15.16-14.95,32.79-15.34,50.46c1.89-3.94,3.76-7.7,5.63-11.3c-1.03,0.8-2.07,1.59-3.09,2.4
			C373.56,745.41,373.55,745.41,373.55,745.42z"/>
		<path class="st7" d="M469.46,671.87c-0.53-0.66-1.08-1.28-1.64-1.89l0.37,1.25C469.03,671.61,469.46,671.87,469.46,671.87z"/>
		<path class="st8" d="M514.55,646.53l1.94,9.67c0.71-0.05,1.43-0.11,2.13-0.15L514.55,646.53z"/>
		<path class="st8" d="M491.72,659.33c0.41-0.08,0.82-0.14,1.22-0.22l-2.39-5.58L491.72,659.33z"/>
		<path class="st8" d="M570,642.53c-4.54-5.72-10.15-12.53-16.7-19.95c-49.41-33.05-128.7-13.88-166.94,81.25
			c-3.91,9.7-7.38,20.21-10.34,31.52C396.61,668.42,503.1,582.03,570,642.53z"/>
		<path class="st8" d="M373.56,745.4C373.56,745.41,373.56,745.41,373.56,745.4c-0.01,0.01-0.01,0.02-0.01,0.02
			S373.56,745.41,373.56,745.4z"/>
		<path class="st7" d="M474.03,819.07C474.02,819.07,474.02,819.07,474.03,819.07C474.02,819.07,474.02,819.06,474.03,819.07
			c-0.8-4.96-1.05-10.53-0.81-16.53c-0.23-10.45,0.1-20.37,0.95-29.74c-2.83,22.61-2.25,44.48,1.58,56.67
			c2.59-10.02,5.41-20.17,8.33-30.18C480.59,805.68,477.23,812.27,474.03,819.07L474.03,819.07z"/>
		<path class="st8" d="M569.33,662.05c0-0.01,0.01-0.01,0.01-0.02c-0.03,0.01-0.05,0.01-0.08,0.02
			C569.29,662.05,569.31,662.05,569.33,662.05z"/>
		<path class="st8" d="M561.19,677.91l0.26,0.41c0.02-0.01,0.04-0.02,0.06-0.03L561.19,677.91z"/>
		<polygon class="st8" points="474.03,819.07 474.02,819.06 474.02,819.07 		"/>
		<path class="st8" d="M473.21,802.53c1.89-46.8,34.22-119.86,76.58-136.88c-7.33,1.54-15.59,3.45-24.56,5.86l-1.61-3.78
			c-1.4,1-2.8,2.07-4.18,3.19l0.41,2.06c-1.38,0.39-2.78,0.79-4.18,1.19c-20.65,18.88-37.31,52.07-41.51,98.62
			C473.31,782.17,472.98,792.08,473.21,802.53z"/>
		<path class="st7" d="M441.51,555.22c7.81-4.25,15.58-6.74,23.16-7.95c-4.5-2.56-9.07-4.96-13.71-7.17
			C445.76,543.96,442.3,548.99,441.51,555.22z"/>
		<path class="st7" d="M486.48,547.14c0.41,0.06,0.83,0.12,1.24,0.19l1.32-6.86L486.48,547.14z"/>
		<path class="st8" d="M450.03,539.77c0.05-0.02,0.11-0.02,0.16-0.04c-0.02-0.02-0.05-0.02-0.08-0.04
			C450.09,539.72,450.06,539.74,450.03,539.77z"/>
		<path class="st8" d="M582.31,645.58c0.14-0.09,0.26-0.18,0.4-0.27c0,0,0.23,1.28,0.62,3.51c0.02-0.07,0.02-0.14,0.03-0.21
			c-0.37-2.27-0.58-3.57-0.58-3.57c0.42-0.04,0.84-0.05,1.26-0.06c0.25-1.22,0.51-2.42,0.78-3.6c0-3.43,0.11-6.81,0.32-10.14
			c-0.04-0.93-0.09-1.87-0.15-2.8c-0.04-0.59-0.08-1.19-0.12-1.78c-0.11-1.37-0.23-2.73-0.36-4.1
			c-7.01-69.27-61.4-144.42-134.15-83.06C503.36,517.82,573.8,548.33,582.31,645.58z"/>
		<path class="st7" d="M664.1,699c4.13,9.56,7.92,19.59,10.65,29.24c1.49-4.55,2.15-9.56,2.11-14.8
			C672.74,708.22,668.45,703.42,664.1,699z"/>
		<path class="st7" d="M655.54,680.61c0.08,0.15,0.15,0.3,0.23,0.45l0.33-1.64L655.54,680.61z"/>
		<path class="st8" d="M636.45,630.07c-0.83-0.29-1.67-0.55-2.51-0.76l0.23,3.1c-9.77,3.4-18.51,7.13-25.91,10.63
			c31.24-9.92,56.94,19.8,65.64,49.63c-6.98-35.42-20.32-55.19-35.29-61.76c-0.62,0.2-1.24,0.4-1.84,0.6L636.45,630.07z"/>
		<path class="st8" d="M635.94,664.21c0.04,0.02,0.08,0.04,0.11,0.06l0.05-0.53L635.94,664.21z"/>
		<path class="st8" d="M617.58,656.75c0.33,0.09,0.66,0.2,0.99,0.29l1.1-3.87L617.58,656.75z"/>
		<path class="st8" d="M677.05,713.69L677.05,713.69L677.05,713.69z"/>
		<path class="st8" d="M627.69,660.28c0.05,0.02,0.1,0.04,0.14,0.06l0.2-0.85L627.69,660.28z"/>
		<path class="st9" d="M563.88,682.11l-2.43-3.79l-0.26-0.41l0.32,0.38l2.47,2.94c0.79-6.7,2.65-13.33,5.35-19.18
			c-0.02,0-0.05,0-0.08,0c-5.36,0.86-11.92,2.02-19.47,3.6c-42.36,17.02-74.69,90.08-76.58,136.88c-0.24,6,0.02,11.57,0.81,16.53
			l0,0l0,0c3.21-6.79,6.56-13.38,10.03-19.79c8.73-16.11,18.18-30.96,27.72-44.41l-7.8-11.18l9.56,8.72
			c3.57-4.96,7.13-9.73,10.69-14.29l-13.2-16.53l14.55,14.8c4.6-5.85,9.16-11.38,13.6-16.55l-6.68-18.28l9.1,15.47
			c4.53-5.19,8.91-9.99,13.08-14.4l-9.58-14.99l11.17,13.32c2.61-2.73,5.11-5.28,7.51-7.68
			C563.45,689.63,563.49,685.87,563.88,682.11z"/>
		<path class="st9" d="M608.24,643.05c-4.27,2.03-8.1,3.98-11.42,5.77c4.24,2.63,8.15,6.48,11.33,11.15
			c1.86,0.85,3.83,1.78,5.9,2.81l3.52-6.02l2.1-3.57l-1.1,3.87l-2,7c2.46,1.27,5.04,2.67,7.71,4.22l3.41-7.98l0.34-0.79l-0.2,0.85
			l-2.03,8.81c2.28,1.35,4.63,2.79,7.02,4.35l3.11-9.29l0.16-0.48l-0.05,0.53L635,674.92c2.77,1.86,5.6,3.85,8.45,5.99l3.31-7.74
			l-2.01,8.73c2.46,1.88,4.92,3.87,7.4,5.96l3.39-7.27l0.56-1.19l-0.33,1.64l-1.69,8.47c3.36,2.94,6.71,6.1,10.03,9.47
			c4.35,4.42,8.64,9.22,12.77,14.45c0.07,0.08,0.13,0.16,0.2,0.24v-0.01l0,0c0.04-6.64-1.07-13.83-3.17-21.01
			C665.19,662.85,639.48,633.13,608.24,643.05z"/>
		<path class="st10" d="M519.44,670.92l-2.96-14.73l-1.94-9.67l4.07,9.52l5,11.69l1.61,3.78c8.97-2.4,17.23-4.32,24.56-5.86
			c7.55-1.58,14.1-2.75,19.47-3.6c0.03-0.01,0.05-0.01,0.08-0.02c1.96-4.24,4.36-8.06,7.1-11.2c-1.81-2.4-3.96-5.19-6.44-8.31
			c-66.89-60.5-173.39,25.9-193.98,92.82c-1.05,3.41-1.88,6.77-2.46,10.06l0,0c0,0,0,0,0.01-0.01c1.03-0.81,2.06-1.61,3.09-2.4
			c9.66-7.45,19.5-14.26,29.4-20.47l-2.03-12.89l4.12,11.59c4.4-2.73,8.81-5.32,13.22-7.81l-2.46-15.61l5.03,14.16
			c4.96-2.76,9.92-5.37,14.86-7.84l-2.48-15.76l5.13,14.43c4.1-2.02,8.17-3.94,12.22-5.78l-3.63-23.11l7.58,21.34
			c5.29-2.34,10.54-4.54,15.7-6.59l-5.12-17.42l-0.37-1.25l-1.09-3.71l10.96,20.67c6.23-2.39,12.32-4.59,18.25-6.59l-4.22-21.03
			l-1.16-5.8l2.39,5.58l8.34,19.48c4.94-1.61,9.74-3.07,14.4-4.42c1.41-0.41,2.81-0.81,4.18-1.19L519.44,670.92z"/>
		<path class="st9" d="M717.99,608.89c-17.2-17.75-44.92-28.99-70.93-26.86l0.21,1.01c-3.91,4.14-7.65,8.22-11.23,12.22l-4.73-10.16
			c-0.63,0.2-1.25,0.42-1.87,0.64l3.99,12.46c-17.9,20.24-31.46,38.04-39.45,49.06c0.97,0.46,1.92,0.98,2.86,1.56
			c3.32-1.79,7.14-3.74,11.42-5.77c7.41-3.51,16.14-7.24,25.91-10.63l-0.23-3.1l-1.19-16.56l3.7,17.32l0.31,1.45
			c0.61-0.2,1.23-0.4,1.84-0.6c4.21-1.37,8.58-2.68,13.11-3.88l1.72-20.6l1.35,19.81c4.45-1.11,9.04-2.11,13.76-2.97l-1.41-19.83
			l-0.05-0.68l0.14,0.68l4.12,19.34c3.51-0.59,7.08-1.09,10.71-1.49l-1.07-15.66l-0.08-1.16l0.42,1.25l5.09,15.13
			c2.96-0.26,5.95-0.45,8.97-0.58l-0.68-9.56l-0.27-3.72l-0.15-2.12l0.47,2.22l0.87,4.06l1.93,9.04c4.16-0.11,8.37-0.08,12.62,0.12
			c2.59,0.12,5.2,0.3,7.82,0.54L717.99,608.89L717.99,608.89z"/>
		<path class="st9" d="M584.05,644.98c0.28-0.01,0.55-0.01,0.83,0c-0.03-1.21-0.05-2.41-0.05-3.6
			C584.56,642.56,584.29,643.76,584.05,644.98z"/>
		<path class="st9" d="M584.14,653.41c-0.31-1.89-0.57-3.51-0.78-4.81c-0.02,0.07-0.02,0.14-0.03,0.21
			C583.55,650.06,583.83,651.61,584.14,653.41z"/>
		<path class="st10" d="M570,642.53c2.48,3.12,4.63,5.92,6.44,8.31c1.82-2.08,3.79-3.86,5.87-5.26
			c-8.51-97.25-78.94-127.76-131.94-106.08c-0.12,0.05-0.25,0.1-0.37,0.14c0.04,0.02,0.08,0.04,0.12,0.06
			c0.02,0.02,0.05,0.02,0.08,0.04c0.26,0.12,0.5,0.25,0.76,0.37c4.64,2.21,9.22,4.61,13.71,7.17c5.99,3.41,11.85,7.08,17.54,10.97
			l4.26-11.12l2.56-6.68l-1.32,6.86l-2.5,12.99c4.34,3.05,8.58,6.2,12.73,9.43l5.87-15.3l-3.33,17.3c3.85,3.07,7.61,6.2,11.27,9.37
			l3.07-20.67l0.93,24.18c3.88,3.45,7.62,6.92,11.23,10.39l6.14-16.84l-2.79,20.08c3.5,3.45,6.87,6.87,10.09,10.24l5.32-21.55
			l-1.52,25.6c3.19,3.42,6.22,6.77,9.07,10C559.85,630,565.47,636.81,570,642.53z"/>
		<path class="st10" d="M585.87,623.06c-0.11,0.96-0.22,1.93-0.31,2.91c-0.17,1.74-0.31,3.51-0.42,5.28
			c-0.21,3.33-0.32,6.71-0.32,10.14c0,1.19,0.02,2.4,0.05,3.6c3.07,0.08,6.14,0.88,9.09,2.28c7.99-11.03,21.54-28.82,39.45-49.06
			l-3.99-12.46l-4.76-14.87l6.63,14.23l4.73,10.16c3.58-4,7.33-8.08,11.23-12.22l-0.21-1.01l-3.49-16.89l-1.72-8.31l2.44,8.27
			l4.74,16.07c4.39-4.61,8.97-9.28,13.71-13.97c0.98-0.96,1.95-1.93,2.94-2.9l-9.08-20.79l12.43,17.56
			c3.71-3.55,7.52-7.1,11.42-10.62l-8.13-18.64l11.23,15.87c3.69-3.28,7.46-6.53,11.3-9.74l-10.36-13.01l14.13,9.88
			c3.51-2.88,7.09-5.72,10.72-8.51l-7.32-16l10.89,13.29c1.68-1.26,3.39-2.51,5.09-3.75V500.5l-0.28-0.45l-0.02-0.02l0.02,0.02
			l0.27,0.26v-13.89C665.35,493.03,595.21,542.28,585.87,623.06z"/>
		<path class="st11" d="M596.83,648.82c-0.94-0.58-1.89-1.1-2.86-1.56c-2.95-1.4-6.02-2.2-9.09-2.28c-0.28-0.01-0.55-0.01-0.83,0
			c-0.42,0.01-0.84,0.02-1.26,0.06c0,0,0.21,1.3,0.58,3.57c0.21,1.3,0.47,2.92,0.78,4.81c3.55,20.04,12.53,70.87,13.49,77.84
			c0.23,1.62,0.38,2.73,0.34,3.37c0.79,1.22,1.94-3.26,7.3-15.22c1.73-3.85,3.88-8.46,6.6-13.92c7.94-15.92,4.53-33.44-3.71-45.5
			C604.98,655.3,601.08,651.45,596.83,648.82z"/>
		<path class="st8" d="M576.25,718.17c17.72,12.96,21.55,19.26,21.72,16.46c0.04-0.64-0.11-1.76-0.34-3.37
			c-0.96-6.97-9.94-57.79-13.49-77.84c-0.32-1.79-0.59-3.35-0.81-4.6c-0.4-2.23-0.62-3.51-0.62-3.51c-0.14,0.08-0.26,0.18-0.4,0.27
			c-2.1,1.4-4.06,3.18-5.87,5.26c-2.74,3.14-5.14,6.96-7.1,11.2c0,0.01-0.01,0.01-0.01,0.02c-2.7,5.85-4.57,12.48-5.35,19.18
			c-0.04,0.29-0.07,0.59-0.1,0.88c-0.39,3.76-0.44,7.52-0.1,11.16c0.92,9.93,4.67,18.98,12.12,24.63c0.05,0.05,0.11,0.08,0.17,0.13
			C576.13,718.07,576.19,718.12,576.25,718.17z"/>
	</g>
</g>
</svg>
