<?xml version="1.0" encoding="utf-8"?>
<!-- Generator: Adobe Illustrator 27.6.1, SVG Export Plug-In . SVG Version: 6.00 Build 0)  -->
<svg version="1.1" id="Layer_1" xmlns="http://www.w3.org/2000/svg" xmlns:xlink="http://www.w3.org/1999/xlink" x="0px" y="0px"
	 viewBox="0 0 1920 1080" style="enable-background:new 0 0 1920 1080;" xml:space="preserve">
<style type="text/css">
	.st0{fill:none;stroke:#000000;stroke-miterlimit:10;}
	.st1{fill:url(#SVGID_1_);}
	.st2{fill:url(#SVGID_00000082349197304565584220000017074688420561767338_);}
	.st3{fill:#006837;}
	.st4{fill:#8CC63F;}
	.st5{fill:#008C37;}
	.st6{fill:#559545;}
	.st7{fill:#42210B;}
	.st8{fill:#754C24;}
	.st9{fill:#39B54A;}
	.st10{fill:none;}
	.st11{fill:#FFFFFF;}
</style>
<g id="sky">
	<rect x="0.5" y="-0.5" class="st0" width="1920" height="935"/>
	
		<linearGradient id="SVGID_1_" gradientUnits="userSpaceOnUse" x1="959" y1="153" x2="959" y2="1082" gradientTransform="matrix(1 0 0 -1 0 1082)">
		<stop  offset="0" style="stop-color:#CCE0F4;stop-opacity:0.5"/>
		<stop  offset="0.588" style="stop-color:#D0DEEA;stop-opacity:0.8"/>
		<stop  offset="0.6334" style="stop-color:#C7DBE9;stop-opacity:0.8"/>
		<stop  offset="0.7061" style="stop-color:#B0D2E7;stop-opacity:0.8"/>
		<stop  offset="0.7967" style="stop-color:#8AC4E3;stop-opacity:0.8"/>
		<stop  offset="0.9008" style="stop-color:#56B1DD;stop-opacity:0.8"/>
		<stop  offset="1" style="stop-color:#1E9CD7;stop-opacity:0.8"/>
	</linearGradient>
	<rect x="-1" class="st1" width="1920" height="929"/>
</g>
<g id="beach">
	
		<linearGradient id="SVGID_00000119103257964453298340000007546266343986705797_" gradientUnits="userSpaceOnUse" x1="960" y1="4" x2="960" y2="348" gradientTransform="matrix(1 0 0 -1 0 1082)">
		<stop  offset="0" style="stop-color:#EDDFB2"/>
		<stop  offset="0.2821" style="stop-color:#E0E5D1"/>
		<stop  offset="0.5073" style="stop-color:#D4EBEC"/>
		<stop  offset="0.6045" style="stop-color:#C7E6E7"/>
		<stop  offset="0.7859" style="stop-color:#A3D9DA"/>
		<stop  offset="1" style="stop-color:#72C6C7"/>
	</linearGradient>
	<rect y="734" style="fill:url(#SVGID_00000119103257964453298340000007546266343986705797_);" width="1920" height="344"/>
</g>
<g id="palmtree1">
	<path class="st3" d="M192.51,447.79c9.55-54.66-111.77-61.85-130.5-32.05C133.1,400.33,183.82,437.34,192.51,447.79z"/>
	<path class="st4" d="M251.93,550.76C273,443,211.22,372.05,82.12,403.01C214.88,420.9,276.25,525.93,251.93,550.76z"/>
	<path class="st3" d="M209.97,506.44C202.86,467,104.64,481,98.31,521.36C160.16,476.72,211.05,512.44,209.97,506.44z"/>
	<path class="st4" d="M255.97,550.03c8.81-63.52-62.63-117.81-151.96-43.44C230.48,469.65,255.97,550.03,255.97,550.03z"/>
	<path class="st3" d="M374.47,573.49c36.44-26.14,101.23,27.71,96.88,74.77C425.92,557.25,374.47,573.49,374.47,573.49z"/>
	<path class="st4" d="M252.41,551.57c50.1-60.17,193.57-40.08,217.1,89.51C420.29,542.07,252.41,551.57,252.41,551.57z"/>
	<path class="st3" d="M320.05,586.17c42.7,3.84,46.69,84.73,32.65,109C341.16,643.38,320.05,586.17,320.05,586.17z"/>
	<path class="st4" d="M245.27,557.39c52.31-25.75,134.24,25.98,110.25,129.9C359.46,582.9,245.27,557.39,245.27,557.39z"/>
	<path class="st3" d="M305.76,489.8c-8.8-40.57,108.1-34.62,109.65-3.83C362.21,458.02,302.83,491.39,305.76,489.8z"/>
	<path class="st4" d="M254.48,551.76c-7.8-58.82,68.25-145.21,153.33-78.72C289.05,439.6,254.48,551.76,254.48,551.76z"/>
	<path class="st3" d="M198.21,536.14c-23.46-0.45-55.09,34.74-47.63,58.68C165.52,566.71,198.21,536.14,198.21,536.14z"/>
	<path class="st4" d="M247.86,545.71c-27.07-37.08-78.51-33.96-98.33,37.54C180.7,535.58,247.86,545.71,247.86,545.71z"/>
	<path class="st5" d="M276.26,568.14l-8.53,7.76c3.58,3.19,7.46,6.76,11.56,10.68l13.16-9.13l-11.64,10.59
		c4.01,3.88,8.22,8.09,12.54,12.61l11.17-11.02l-8.85,13.46c4.23,4.49,8.55,9.28,12.89,14.33l16.91-9.9l-15.63,11.39
		c3.34,3.93,6.69,8.02,10.01,12.26l11.01-5.73l-9.38,7.83c12.39,16.05,24.32,34.2,34.04,53.98
		c14.87-42.19-35.54-150.81-110.25-129.9c0,0,8.54,6.19,21.29,17.48L276.26,568.14z"/>
	<path class="st5" d="M175.13,558.94l3.38,6.99c2.83-1.36,5.65-2.63,8.44-3.82l-1.3-7l2.78,6.37c3.24-1.35,6.44-2.6,9.56-3.73
		l-0.09-8.82l2.55,7.94c2.69-0.95,5.33-1.81,7.9-2.61l-1.44-7.74l3.15,7.22c2.99-0.9,5.87-1.71,8.61-2.43l-2.26-8.78l5.05,8.07
		c15.73-3.92,26.41-4.89,26.41-4.89c-46.45-34.26-94.82,6.93-98.33,37.54c8.7-6.44,17.79-11.79,26.79-16.25L175.13,558.94z"/>
	<path class="st6" d="M469.51,641.08c-6.87-58.07-135.95-156.82-217.1-89.51c0,0,25.74,4.25,62.74,15.54l13.77-18.23l-8.19,19.96
		c6.16,1.94,12.59,4.07,19.24,6.39l13.81-18.28l-8.3,20.24c6.12,2.2,12.39,4.57,18.79,7.12l13.64-14.85l-9.15,16.66
		c5.3,2.16,10.67,4.43,16.09,6.84l10.11-15.75l-6.08,17.55c4.13,1.87,8.28,3.81,12.44,5.83l6.84-10.65l-4.14,11.96
		c5.01,2.46,10.03,5.03,15.05,7.71l6.71-10.45l-4.11,11.85c4.45,2.41,8.9,4.92,13.33,7.51l5.49-8.55l-3.39,9.79
		C448.11,626.29,458.98,633.38,469.51,641.08z"/>
	<path class="st5" d="M141.61,496.89l-2.65,11.84c3.2,0.42,6.37,0.9,9.49,1.43l7.44-12.12l-2.83,12.94
		c3.82,0.71,7.58,1.49,11.26,2.33l6.46-15.07L167.26,514c4.93,1.18,9.72,2.46,14.36,3.81l3.33-15.23l-0.14,16.18
		c5.4,1.63,10.57,3.35,15.49,5.12l6.06-14.14l-3.38,15.11c32.29,11.89,52.99,25.19,52.99,25.19C253.87,467.1,138.8,471.4,104,506.58
		c11.18-0.14,22.11,0.55,32.66,1.85L141.61,496.89z"/>
	<path class="st6" d="M301.42,499.22l3.6,17.32c3.75-2.26,7.66-4.55,11.73-6.85l-1.04-15.9l4.92,13.74
		c4.17-2.3,8.49-4.59,12.94-6.85l3.3-18.68l1.29,16.39c4.19-2.06,8.5-4.08,12.89-6.05l-1.88-13.8l4.77,12.52
		c4.72-2.06,9.54-4.05,14.45-5.94l-2.16-15.84l5.55,14.56c11.61-4.32,23.7-8.08,36.07-10.93c-56.94-23.95-140.08-5.36-153.19,78.9
		c0,0,17.73-15.11,45.92-32.56L301.42,499.22z"/>
	<g>
		<path class="st7" d="M179.66,916.51L179.66,916.51c-10.06-0.86-16.6-10.18-14.43-19.75l5.71-25.24l26.91,2.31l0.2,25.75
			C198.13,909.35,189.71,917.38,179.66,916.51z"/>
		<path class="st8" d="M180.09,912.46L180.09,912.46c-10.06-0.86-16.6-9.5-14.45-18.25l5.57-22.68l26.36,2.27l0.61,23.21
			C198.42,905.96,190.15,913.32,180.09,912.46z"/>
	</g>
	<g>
		<path class="st7" d="M179.85,889.88L179.85,889.88c-10.06-0.86-16.6-10.18-14.43-19.75l5.71-25.24l26.91,2.31l0.2,25.75
			C198.33,882.72,189.91,890.75,179.85,889.88z"/>
		<path class="st8" d="M180.29,885.83L180.29,885.83c-10.06-0.86-16.6-9.5-14.45-18.25l5.57-22.68l26.36,2.27l0.61,23.21
			C198.62,879.33,190.35,886.7,180.29,885.83z"/>
	</g>
	<g>
		<path class="st7" d="M180.77,868.62L180.77,868.62c-10.05-0.74-16.78-9.99-14.83-19.61l5.14-25.38l26.89,1.97l0.78,25.81
			C199.03,861.19,190.82,869.35,180.77,868.62z"/>
		<path class="st8" d="M181.11,864.55L181.11,864.55c-10.05-0.74-16.77-9.31-14.82-18.1l5.05-22.8l26.34,1.93l1.13,23.25
			C199.25,857.79,191.16,865.28,181.11,864.55z"/>
	</g>
	<g>
		<path class="st7" d="M182.6,844.73L182.6,844.73c-10.07-0.28-17.21-9.22-15.7-18.93l3.99-25.58l26.95,0.76l1.93,25.75
			C200.52,836.49,192.68,845.01,182.6,844.73z"/>
		<path class="st8" d="M182.77,840.65L182.77,840.65c-10.07-0.28-17.17-8.55-15.61-17.42l4.02-23.01l26.4,0.74l2.17,23.18
			C200.58,833.08,192.84,840.93,182.77,840.65z"/>
	</g>
	<g>
		<path class="st7" d="M179.74,816.29L179.74,816.29c-10.01-1.1-16.44-10.59-14.19-20.15l5.93-25.2l26.78,2.93l-0.03,25.85
			C198.21,809.52,189.75,817.39,179.74,816.29z"/>
		<path class="st8" d="M180.21,812.23L180.21,812.23c-10.01-1.1-16.45-9.91-14.23-18.64l5.76-22.63l26.24,2.87l0.4,23.3
			C198.53,806.12,190.22,813.33,180.21,812.23z"/>
	</g>
	<g>
		<path class="st7" d="M181.68,781.81L181.68,781.81c-9.79-2.39-14.93-12.64-11.46-21.82l9.15-24.22l26.18,6.38l-3.39,25.62
			C200.87,777.49,191.47,784.2,181.68,781.81z"/>
		<path class="st8" d="M182.68,777.85L182.68,777.85c-9.79-2.39-15.02-11.96-11.69-20.33l8.65-21.69l25.64,6.25l-2.63,23.16
			C201.64,774.17,192.46,780.24,182.68,777.85z"/>
	</g>
	<g>
		<path class="st7" d="M188.28,753.13L188.28,753.13c-9.79-2.39-14.93-12.64-11.46-21.82l9.15-24.22l26.18,6.38l-3.39,25.62
			C207.48,748.81,198.07,755.52,188.28,753.13z"/>
		<path class="st8" d="M189.28,749.17L189.28,749.17c-9.79-2.39-15.02-11.96-11.69-20.33l8.65-21.69l25.64,6.25l-2.63,23.16
			C208.24,745.49,199.07,751.56,189.28,749.17z"/>
	</g>
	<g>
		<path class="st7" d="M194.33,722.38L194.33,722.38c-9.79-2.39-14.93-12.64-11.46-21.82l9.15-24.22l26.18,6.38l-3.39,25.62
			C213.52,718.06,204.12,724.77,194.33,722.38z"/>
		<path class="st8" d="M195.33,718.42L195.33,718.42c-9.79-2.39-15.02-11.96-11.69-20.33l8.65-21.69l25.64,6.25l-2.63,23.16
			C214.29,714.74,205.11,720.8,195.33,718.42z"/>
	</g>
	<g>
		<path class="st7" d="M203.26,688.44L203.26,688.44c-9.89-1.95-15.45-11.95-12.35-21.27l8.17-24.57l26.45,5.22l-2.35,25.72
			C222.29,683.28,213.15,690.39,203.26,688.44z"/>
		<path class="st8" d="M204.1,684.44L204.1,684.44c-9.89-1.95-15.51-11.28-12.52-19.77l7.77-22.02l25.91,5.11l-1.69,23.22
			C222.92,679.94,213.99,686.39,204.1,684.44z"/>
	</g>
	<g>
		<path class="st7" d="M206.94,661.32L206.94,661.32c-9.51-3.31-13.73-14.03-9.48-22.88l11.19-23.32l25.44,8.85l-5.6,25.27
			C226.38,658.83,216.45,664.63,206.94,661.32z"/>
		<path class="st8" d="M208.28,657.46L208.28,657.46c-9.51-3.31-13.88-13.37-9.84-21.41l10.48-20.84l24.92,8.67l-4.63,22.88
			C227.42,655.58,217.79,660.77,208.28,657.46z"/>
	</g>
	<g>
		<path class="st7" d="M217,631.5L217,631.5c-9.25-4-12.73-15.02-7.91-23.56l12.7-22.5l24.74,10.7L239.28,621
			C236.51,630.41,226.25,635.49,217,631.5z"/>
		<path class="st8" d="M218.58,627.73L218.58,627.73c-9.25-4-12.92-14.37-8.37-22.12l11.82-20.08l24.23,10.48l-6.13,22.53
			C237.77,627.24,227.83,631.73,218.58,627.73z"/>
	</g>
	<g>
		<path class="st7" d="M230.04,605.78L230.04,605.78c-9.25-4-12.73-15.02-7.91-23.56l12.7-22.5l24.74,10.7l-7.25,24.86
			C249.55,604.69,239.29,609.78,230.04,605.78z"/>
		<path class="st8" d="M231.63,602.01L231.63,602.01c-9.25-4-12.92-14.37-8.37-22.12l11.82-20.08l24.23,10.48l-6.13,22.53
			C250.81,601.52,240.87,606.01,231.63,602.01z"/>
	</g>
	<path class="st6" d="M82.12,403.01c10.62,5.44,20.87,11.35,30.72,17.58l13.89-7.7l-10.45,9.9c4.52,2.92,8.95,5.91,13.29,8.94
		l12.86-9.13l-9.32,11.63c3.6,2.57,7.13,5.16,10.59,7.78l15.99-6.13l-12.28,8.96c3.78,2.91,7.48,5.85,11.09,8.8l13.47-11.09
		l-10.45,13.58c3.82,3.16,7.53,6.33,11.14,9.5l14.91-12.28l-11.65,15.15c5.08,4.52,9.94,9.01,14.57,13.44l13.8-16.41L193,484.35
		c5.24,5.06,10.17,10.01,14.78,14.78l19.53-17.45l-17.49,19.57c26.85,28.09,42.11,49.52,42.11,49.52
		C260,439,137.41,384.09,82.12,403.01z"/>
	<path class="st9" d="M256.44,540.26c-22.29-3.66-49.16,20.04-36.75,43.74s10.63,28.03,13.28,21.59
		C235.61,599.16,256.44,540.26,256.44,540.26z"/>
	<path class="st4" d="M256.49,540.48c19.35,11.72,24.59,47.3-0.11,57.28s-26.12,14.45-24.01,7.82
		C234.5,598.95,256.49,540.48,256.49,540.48z"/>
</g>
<g id="palmtree2">
	<g>
		<path class="st7" d="M1689.48,959.16L1689.48,959.16c13.41,0.21,23.55-10.68,22.25-23.02l-3.43-32.55l-35.87-0.57l-4.46,32.42
			C1666.27,947.74,1676.07,958.95,1689.48,959.16z"/>
		<path class="st8" d="M1689.56,954L1689.56,954c13.41,0.21,23.45-9.82,22.03-21.12l-3.66-29.29l-35.14-0.56l-4.59,29.16
			C1666.44,943.43,1676.15,953.79,1689.56,954z"/>
	</g>
	<g>
		<path class="st7" d="M1689.56,925.7L1689.56,925.7c13.41,0.21,23.55-10.68,22.25-23.02l-3.43-32.55l-35.87-0.57l-4.46,32.42
			C1666.36,914.28,1676.15,925.49,1689.56,925.7z"/>
		<path class="st8" d="M1689.64,920.54L1689.64,920.54c13.41,0.21,23.45-9.82,22.03-21.12l-3.66-29.29l-35.14-0.56l-4.59,29.16
			C1666.52,909.98,1676.23,920.33,1689.64,920.54z"/>
	</g>
	<g>
		<path class="st7" d="M1693.23,893.28L1693.23,893.28c13.37-1.12,22.38-12.97,19.85-25.12l-6.65-32.05l-35.75,3l-1.21,32.71
			C1669.01,884.23,1679.87,894.4,1693.23,893.28z"/>
		<path class="st8" d="M1692.8,888.13L1692.8,888.13c13.37-1.12,22.35-12.11,19.82-23.21l-6.56-28.78l-35.02,2.94l-1.66,29.47
			C1668.74,879.92,1679.44,889.26,1692.8,888.13z"/>
	</g>
	<g>
		<path class="st7" d="M1690.27,860.5L1690.27,860.5c13.37-1.12,22.38-12.97,19.85-25.12l-6.65-32.05l-35.75,3l-1.21,32.71
			C1666.05,851.45,1676.91,861.62,1690.27,860.5z"/>
		<path class="st8" d="M1689.84,855.35L1689.84,855.35c13.37-1.12,22.35-12.11,19.82-23.21l-6.56-28.78l-35.02,2.94l-1.66,29.47
			C1665.78,847.14,1676.47,856.48,1689.84,855.35z"/>
	</g>
	<g>
		<path class="st7" d="M1686.43,822.59L1686.43,822.59c13.38-0.96,22.53-12.7,20.16-24.88l-6.26-32.12l-35.79,2.57l-1.61,32.69
			C1662.31,813.24,1673.05,823.55,1686.43,822.59z"/>
		<path class="st8" d="M1686.06,817.44L1686.06,817.44c13.38-0.96,22.5-11.84,20.1-22.97l-6.21-28.86l-35.05,2.52l-2.02,29.45
			C1662.1,808.94,1672.68,818.4,1686.06,817.44z"/>
	</g>
	<g>
		<path class="st7" d="M1683.35,786.54L1683.35,786.54c13.4,0.66,23.89-9.89,23-22.27l-2.35-32.64l-35.83-1.76l-5.53,32.26
			C1660.54,774.36,1669.95,785.88,1683.35,786.54z"/>
		<path class="st8" d="M1683.6,781.38L1683.6,781.38c13.4,0.66,23.76-9.04,22.72-20.38l-2.69-29.4l-35.1-1.72l-5.55,28.99
			C1660.84,770.06,1670.2,780.72,1683.6,781.38z"/>
	</g>
	<g>
		<path class="st7" d="M1687.87,744.16L1687.87,744.16c13.3-1.74,21.75-13.99,18.67-26.01l-8.13-31.7l-35.57,4.65l0.3,32.73
			C1663.25,736.24,1674.57,745.9,1687.87,744.16z"/>
		<path class="st8" d="M1687.2,739.04L1687.2,739.04c13.3-1.74,21.77-13.13,18.73-24.1l-7.88-28.45l-34.85,4.56l-0.3,29.52
			C1662.79,731.95,1673.9,740.78,1687.2,739.04z"/>
	</g>
	<g>
		<path class="st7" d="M1688.62,710.38L1688.62,710.38c12.76-4.15,18.82-17.74,13.58-29l-13.8-29.68l-34.12,11.1l6.3,32.12
			C1662.97,707.1,1675.86,714.52,1688.62,710.38z"/>
		<path class="st8" d="M1687.02,705.47L1687.02,705.47c12.76-4.15,18.99-16.9,13.99-27.13l-12.96-26.52l-33.42,10.87l5.12,29.07
			C1661.72,702.97,1674.27,709.61,1687.02,705.47z"/>
	</g>
	<g>
		<path class="st7" d="M1677.13,668L1677.13,668c13.01-3.26,20-16.4,15.55-27.99l-11.72-30.56l-34.8,8.72l4.07,32.47
			C1651.76,662.97,1664.12,671.26,1677.13,668z"/>
		<path class="st8" d="M1675.87,663L1675.87,663c13.01-3.26,20.11-15.55,15.83-26.1l-11.1-27.35l-34.09,8.54l3.1,29.36
			C1650.81,658.76,1662.86,666.25,1675.87,663z"/>
	</g>
	<g>
		<path class="st7" d="M1669.76,634.84L1669.76,634.84c13.09-2.94,20.39-15.91,16.23-27.6l-10.97-30.83l-35,7.86l3.27,32.56
			C1644.53,629.19,1656.67,637.78,1669.76,634.84z"/>
		<path class="st8" d="M1668.63,629.81L1668.63,629.81c13.09-2.94,20.49-15.05,16.46-25.7l-10.43-27.62l-34.29,7.7l2.38,29.42
			C1643.68,624.96,1655.54,632.75,1668.63,629.81z"/>
	</g>
	<g>
		<path class="st7" d="M1664.01,595.88L1664.01,595.88c12.85-3.84,19.24-17.28,14.27-28.66l-13.09-30l-34.37,10.28l5.52,32.26
			C1638.44,591.99,1651.16,599.72,1664.01,595.88z"/>
		<path class="st8" d="M1662.53,590.93L1662.53,590.93c12.85-3.84,19.39-16.44,14.64-26.78l-12.32-26.83l-33.67,10.07l4.42,29.19
			C1637.3,587.83,1649.68,594.77,1662.53,590.93z"/>
	</g>
	<g>
		<path class="st7" d="M1650.99,561.78L1650.99,561.78c12.85-3.84,19.24-17.28,14.27-28.66l-13.09-30l-34.37,10.28l5.52,32.26
			C1625.42,557.89,1638.14,565.63,1650.99,561.78z"/>
		<path class="st8" d="M1649.51,556.84L1649.51,556.84c12.85-3.84,19.39-16.44,14.64-26.78l-12.32-26.83l-33.67,10.07l4.42,29.19
			C1624.28,553.74,1636.66,560.68,1649.51,556.84z"/>
	</g>
	<path class="st3" d="M1728.39,341.23c-3.71-70.12,157.53-63.46,177.38-23.49C1814.49,289.12,1741.55,329.18,1728.39,341.23z"/>
	<path class="st4" d="M1633.23,463.28c-17.84-117.16,82.8-219.91,248.08-164.19C1703.26,304.44,1605.19,428.84,1633.23,463.28z"/>
	<path class="st3" d="M1695.8,412.87c15.8-48.77,143.1-18.42,144.88,33.26C1766.35,381.87,1693.4,420.29,1695.8,412.87z"/>
	<path class="st4" d="M1628.03,461.83c-1.28-81.18,101.81-140.34,207.55-35.06C1674.73,363.85,1628.03,461.83,1628.03,461.83z"/>
	<path class="st3" d="M1467.86,476.05c-43.82-37.65-138.06,21.81-139.98,81.66C1402.63,448.93,1467.86,476.05,1467.86,476.05z"/>
	<path class="st4" d="M1632.47,464.24c-56.3-82.3-248.84-75.57-300.99,84.68C1412.54,430.52,1632.47,464.24,1632.47,464.24z"/>
	<path class="st3" d="M1537.6,499.08c-56.96-0.69-75.38,100.72-60.82,133.11C1500.44,568.43,1537.6,499.08,1537.6,499.08z"/>
	<path class="st4" d="M1640.94,472.49c-64.82-39.21-181.33,15.36-166.59,149.4C1486.14,489.85,1640.94,472.49,1640.94,472.49z"/>
	<path class="st3" d="M1572.14,379.49c18.21-49.98-136.97-57.62-144.03-19.02C1502.84,332.14,1575.74,381.87,1572.14,379.49z"/>
	<path class="st4" d="M1629.71,464.21c19.86-73.11-66.4-191.81-189.47-119.05C1602.35,318.4,1629.71,464.21,1629.71,464.21z"/>
	<path class="st3" d="M1706.48,451.81c31.03,2.47,67.02,50.9,53.29,80.1C1744.64,494.56,1706.48,451.81,1706.48,451.81z"/>
	<path class="st4" d="M1639.43,457.44c41.75-43.22,109.1-32.62,123.62,60.04C1729.67,453.37,1639.43,457.44,1639.43,457.44z"/>
	<path class="st5" d="M1598.3,482.03l9.99,10.88c-5.24,3.55-10.94,7.55-16.99,11.96l-15.88-13.2l13.63,14.85
		c-5.93,4.37-12.16,9.13-18.6,14.27l-12.94-15.33l9.49,18.11c-6.31,5.12-12.79,10.59-19.34,16.39l-20.7-14.66l18.77,16.38
		c-5.05,4.52-10.13,9.24-15.2,14.16l-13.59-8.64l11.1,11.08c-18.96,18.62-37.66,39.94-53.69,63.61
		c-12.75-55.09,71.44-185.42,166.59-149.4c0,0-12.27,6.7-30.93,19.27L1598.3,482.03z"/>
	<path class="st5" d="M1733.23,483.53l-5.6,8.38c-3.52-2.08-7.03-4.05-10.52-5.91l2.86-8.65l-4.71,7.67
		c-4.05-2.12-8.07-4.1-12.01-5.94l1.56-11.1l-4.65,9.68c-3.4-1.54-6.74-2.97-9.99-4.31l3.16-9.57l-5.33,8.69
		c-3.79-1.53-7.46-2.92-10.96-4.18l4.41-10.77l-7.98,9.51c-20.11-6.98-34.04-9.58-34.04-9.58c66.86-37.15,123.96,21.01,123.62,60.04
		c-10.43-9.24-21.56-17.16-32.69-23.94L1733.23,483.53z"/>
	<path class="st6" d="M1331.48,548.91c18.52-72.29,204.89-179.99,300.99-84.68c0,0-34.65,2.03-85.3,11.46l-15.2-24.75l7.55,26.21
		c-8.44,1.65-17.27,3.49-26.42,5.56l-15.25-24.83l7.66,26.58c-8.43,1.98-17.1,4.16-25.95,6.53l-15.58-20.48l9.36,22.18
		c-7.34,2.03-14.8,4.21-22.33,6.53l-10.78-21.15l5.16,22.9c-5.75,1.82-11.54,3.73-17.37,5.73l-7.29-14.3l3.52,15.61
		c-7.01,2.45-14.06,5.04-21.12,7.77l-7.15-14.03l3.49,15.46c-6.27,2.47-12.54,5.04-18.8,7.74l-5.85-11.48l2.88,12.77
		C1362.12,533.05,1346.62,540.58,1331.48,548.91z"/>
	<path class="st5" d="M1787.54,409.68l1.57,15.26c-4.29,0.12-8.54,0.31-12.75,0.57l-7.84-16.23l1.63,16.67
		c-5.16,0.4-10.24,0.9-15.23,1.48l-6.07-19.83l2.08,20.31c-6.7,0.85-13.23,1.84-19.56,2.94l-1.92-19.63l-2.45,20.41
		c-7.38,1.36-14.49,2.86-21.26,4.44l-5.69-18.6l2,19.48c-44.53,10.8-74.01,24.88-74.01,24.88
		c16.27-104.22,167.37-83.91,207.55-35.06c-14.73-1.63-29.26-2.17-43.39-1.9L1787.54,409.68z"/>
	<path class="st6" d="M1576.33,391.93l-7.57,21.36c-4.58-3.34-9.37-6.73-14.35-10.15l3.97-19.9l-8.73,16.68
		c-5.13-3.44-10.45-6.88-15.96-10.3l-1.32-23.96l-4.37,20.48c-5.2-3.14-10.54-6.25-16.02-9.29l4.73-17.14l-8.34,15.16
		c-5.89-3.21-11.93-6.33-18.1-9.35l5.43-19.68l-9.7,17.63c-14.61-6.95-29.95-13.25-45.81-18.44
		c79.02-22.8,185.68,11.38,189.26,119.25c0,0-20.93-21.33-55.28-46.98L1576.33,391.93z"/>
	<rect x="460.15" y="111.34" class="st10" width="38.85" height="39.66"/>
	<path class="st6" d="M1881.31,299.09c-69.87-31-267.42,35.1-248.08,164.19c0,0,25.27-26.76,67.77-60.23l-12.44-27.08l16.16,24.17
		c5.09-3.96,10.42-8.01,15.97-12.11l-7.7-25.97l10.21,24.12c7.52-5.51,15.42-11.1,23.69-16.71l-12.91-20.6l17.67,17.4
		c5.28-3.52,10.69-7.03,16.24-10.52l-11.57-18.47l15.97,15.72c5.24-3.25,10.6-6.47,16.06-9.65l-14.74-12.89l20.1,9.79
		c5-2.85,10.08-5.66,15.24-8.43l-10.41-15.86l15.48,13.17c6.22-3.26,12.55-6.45,18.99-9.54l-12.17-13.82l17.07,11.5
		C1851.93,310.69,1866.42,304.56,1881.31,299.09z"/>
	<path class="st9" d="M1629,449.46c30-1.73,61.59,31.62,41.36,59.88c-20.23,28.26-18.58,33.94-21.03,25.49S1629,449.46,1629,449.46z
		"/>
	<path class="st4" d="M1628.89,449.73c-27.43,12.27-40.14,56.41-9.18,72.19s32.11,21.59,30.4,12.96S1628.89,449.73,1628.89,449.73z"
		/>
</g>
<g id="clouds">
	<g>
		<path class="st11" d="M358.08,195.27H173.81c-16.52,0-29.92-13.39-29.92-29.92l0,0c0-16.52,13.39-29.92,29.92-29.92h184.27
			c16.52,0,29.92,13.39,29.92,29.92l0,0C388,181.88,374.61,195.27,358.08,195.27z"/>
		<circle class="st11" cx="300.61" cy="129.14" r="36.27"/>
		<ellipse class="st11" cx="242.42" cy="113.14" rx="35.11" ry="34.96"/>
		<ellipse class="st11" cx="191.6" cy="129.74" rx="22.89" ry="22.86"/>
		<circle class="st11" cx="350.7" cy="137.55" r="19.62"/>
	</g>
	<g>
		<path class="st11" d="M1551.01,285.94h-150.99c-13.54,0-24.51-10.98-24.51-24.51l0,0c0-13.54,10.97-24.51,24.51-24.51h150.99
			c13.54,0,24.51,10.97,24.51,24.51l0,0C1575.52,274.97,1564.54,285.94,1551.01,285.94z"/>
		<circle class="st11" cx="1503.92" cy="231.76" r="29.72"/>
		<ellipse class="st11" cx="1456.23" cy="218.65" rx="28.77" ry="28.65"/>
		<ellipse class="st11" cx="1414.6" cy="232.25" rx="18.75" ry="18.73"/>
		<circle class="st11" cx="1544.96" cy="238.65" r="16.07"/>
	</g>
</g>
</svg>
