<?xml version="1.0" encoding="utf-8"?>
<!-- Generator: Adobe Illustrator 27.6.1, SVG Export Plug-In . SVG Version: 6.00 Build 0)  -->
<svg version="1.1" id="Layer_1" xmlns="http://www.w3.org/2000/svg" xmlns:xlink="http://www.w3.org/1999/xlink" x="0px" y="0px"
	 viewBox="0 0 850 850" style="enable-background:new 0 0 850 850;" xml:space="preserve">
<style type="text/css">
	.st0{fill:#A25C38;}
	.st1{fill:#F1C384;}
	.st2{fill:#FFE2C0;}
	.st3{fill:none;}
	.st4{fill:#CC863B;}
	.st5{fill:#FFFFFF;}
	.st6{fill:#FF8BCF;}
	.st7{fill:#56463B;}
	.st8{fill:none;stroke:#A25C38;stroke-width:20;stroke-linecap:round;stroke-miterlimit:10;}
	.st9{fill:#F2F2F2;}
	.st10{font-family:'BrightwallPersonalUse';}
	.st11{font-size:48px;}
</style>
<path class="st0" d="M578.09,841C577,708.53,563.96,470.79,454.07,470.79c-116.18,0-178.8,222.45-178.8,348.58
	c0,7.57,0.22,14.77,0.66,21.64h302.16V841z"/>
<path class="st0" d="M800.79,178c28.06,52.75,46.25,97.93-6.49,125.99c-52.75,28.06-156.45,28.38-184.52-24.37
	s30.15-138.58,82.9-166.64C745.42,84.92,772.73,125.26,800.79,178z"/>
<path class="st1" d="M758.74,246.23c-23.58,11.19-56.36,13.72-67.55-9.87s3.39-64.48,26.97-75.67
	c23.58-11.19,47.37,11.51,58.56,35.09C787.91,219.37,782.32,235.04,758.74,246.23z"/>
<path class="st0" d="M120.37,176.81c-28.75,52.37-47.53,97.32,4.85,126.06s156.07,30.42,184.82-21.96S281.7,141.95,229.33,113.2
	S149.12,124.43,120.37,176.81z"/>
<path class="st1" d="M161.37,248.11c23.44,11.5,56.18,14.45,67.68-8.98s-2.55-64.52-25.98-76.02s-47.52,10.89-59.02,34.32
	S137.93,236.61,161.37,248.11z"/>
<path class="st0" d="M751.21,340.54c2.5,125.95-128.52,177.7-306.27,175.93c-177.75,1.77-277.52-49.98-275.01-175.93
	c-2.5-125.95,108.08-258.55,285.83-256.77C633.51,81.99,753.72,214.59,751.21,340.54z"/>
<g>
	<g>
		<path class="st1" d="M474.74,333.02c-1.86,64.62-52.98,138.5-129.81,138.51c-70.49,0-129.49-62.19-129.81-138.51
			c-0.35-82.6,68.19-138.81,129.81-139.8c52.57-0.84,88.72,37.61,96.81,46.66C447.97,246.86,476.19,282.89,474.74,333.02z"/>
		<ellipse class="st1" cx="566.1" cy="331.73" rx="129.81" ry="139.8"/>
	</g>
	<path class="st1" d="M498.78,261.83c0,12.87-19.37,23.3-43.27,23.3s-33.66-10.43-33.66-23.3s9.76-23.3,33.66-23.3
		C467.33,238.53,498.78,248.96,498.78,261.83z"/>
</g>
<g>
	<path class="st2" d="M558.06,474.1c0.86-3.69,1.55-7.44,2.02-11.27l0.39-22.55c-4.69-53.54-49.16-95.97-104.1-96.94
		c-58.74-1.03-107.19,45.76-108.21,104.5c-0.15,8.56,0.74,16.89,2.52,24.89c41.56,18.08,78.35,21.6,100.66,21.99
		C498.57,495.57,535.89,483.4,558.06,474.1z"/>
	<path class="st3" d="M565.63,451.65c0.07-3.81-0.08-7.57-0.4-11.28l-0.39,22.55C565.3,459.22,565.56,455.46,565.63,451.65z"/>
	<path class="st3" d="M456.09,494.82c-22.3-0.39-59.09-3.91-100.66-21.99c10.37,46.95,51.81,82.45,101.99,83.33
		c50.99,0.89,94.21-34.26,105.4-81.97C540.64,483.48,503.33,495.65,456.09,494.82z"/>
</g>
<g>
	<path class="st4" d="M509.94,419.93c0,0-3.55,6.35-9.62,14.14c-4.99,6.42-11.69,13.8-19.48,19.42c-7.19,5.2-15.33,8.88-23.95,8.88
		c-8.75,0-17.03-3.64-24.29-8.74c-8.15-5.71-15.08-13.25-20.07-19.56c-5.5-6.91-8.68-12.38-8.68-12.38s23.76-3.54,53.04-3.54
		C486.18,418.17,509.94,419.93,509.94,419.93z"/>
	<path class="st5" d="M509.94,419.93c0,0-3.55,6.35-9.62,14.14h-87.8c-5.5-6.91-8.68-12.38-8.68-12.38s23.76-3.54,53.04-3.54
		C486.18,418.17,509.94,419.93,509.94,419.93z"/>
	<path class="st6" d="M480.84,453.49c-7.19,5.2-15.33,8.88-23.95,8.88c-8.75,0-17.03-3.64-24.29-8.74
		c6.33-2.27,14.89-3.64,24.29-3.64C466.13,449.99,474.53,451.32,480.84,453.49z"/>
</g>
<line class="st3" x1="469.99" y1="235.2" x2="469.99" y2="235.2"/>
<line class="st3" x1="469.99" y1="235.2" x2="469.99" y2="235.2"/>
<ellipse transform="matrix(0.1395 -0.9902 0.9902 0.1395 189.5773 840.0367)" class="st7" cx="578.13" cy="310.94" rx="32.45" ry="21.64"/>
<ellipse transform="matrix(0.9952 -0.098 0.098 0.9952 -28.8317 34.8342)" class="st7" cx="340.18" cy="310.91" rx="21.64" ry="32.45"/>
<ellipse transform="matrix(0.6062 -0.7953 0.7953 0.6062 -129.5137 482.8599)" class="st7" cx="422.84" cy="372.21" rx="10.08" ry="17.83"/>
<ellipse transform="matrix(0.7953 -0.6062 0.6062 0.7953 -124.9852 374.3098)" class="st7" cx="491.78" cy="372.23" rx="17.83" ry="10.08"/>
<path class="st0" d="M455.53,78.4c-10.28,41.28,5.97,72.84-3.29,70.26c-11.5-3.2-56.28-57.33-45.68-93.44
	c9.99-34.05,66.2-41.83,76.74-35.48C492.07,25.01,465.63,37.84,455.53,78.4z"/>
<path class="st0" d="M477.34,86.62c-28.08,14.45-38.73,32.52-41.42,28.73c-3.33-4.71,7.36-40.63,32.64-52.8
	c23.84-11.48,53.46,1.63,54.58,7.38C524.08,74.72,504.92,72.43,477.34,86.62z"/>
<path class="st0" d="M-6,516.46"/>
<path class="st8" d="M395.14,807.57c-200.91,39.99-258.61,6.7-289.67-80.23c-21-58.77-28.06-156.34,39.54-189.43
	c99.08-48.51,126.67,56.09,69.43,93.57"/>
<text transform="matrix(0.9952 -0.098 0.098 0.9952 445.0027 817.476)" class="st9 st10 st11">Kazu</text>
</svg>
