<?xml version="1.0" encoding="utf-8"?>
<!-- Generator: Adobe Illustrator 27.6.1, SVG Export Plug-In . SVG Version: 6.00 Build 0)  -->
<svg version="1.1" id="Layer_1" xmlns="http://www.w3.org/2000/svg" xmlns:xlink="http://www.w3.org/1999/xlink" x="0px" y="0px"
	 viewBox="0 0 850 850" style="enable-background:new 0 0 850 850;" xml:space="preserve">
<style type="text/css">
	.st0{fill:#A25C38;}
	.st1{fill:#F1C384;}
	.st2{fill:#CC863B;}
	.st3{fill:#FFFFFF;}
	.st4{fill:#F58D79;}
	.st5{fill:none;stroke:#A25C38;stroke-width:38;stroke-linecap:round;stroke-miterlimit:10;}
	.st6{fill:none;stroke:#A25C38;stroke-width:44;stroke-linecap:round;stroke-miterlimit:10;}
	.st7{fill:#56463B;}
	.st8{fill:#FFE2C0;}
	.st9{fill:none;}
	.st10{fill:#736357;}
	.st11{fill:none;stroke:#A25C38;stroke-width:20;stroke-linecap:round;stroke-miterlimit:10;}
</style>
<path class="st0" d="M800.79,178c28.06,52.75,46.25,97.93-6.49,125.99c-52.75,28.06-156.45,28.38-184.52-24.37
	s30.15-138.58,82.9-166.64C745.42,84.92,772.73,125.26,800.79,178z"/>
<path class="st1" d="M758.74,246.23c-23.58,11.19-56.36,13.72-67.55-9.87s3.39-64.48,26.97-75.67
	c23.58-11.19,47.37,11.51,58.56,35.09C787.91,219.37,782.32,235.04,758.74,246.23z"/>
<path class="st0" d="M120.37,176.81c-28.75,52.37-47.53,97.32,4.85,126.06s156.07,30.42,184.82-21.96s-28.34-138.96-80.71-167.71
	S149.12,124.43,120.37,176.81z"/>
<path class="st1" d="M161.37,248.11c23.44,11.5,56.18,14.45,67.68-8.98s-2.55-64.52-25.98-76.02s-47.52,10.89-59.02,34.32
	S137.93,236.61,161.37,248.11z"/>
<path class="st0" d="M578.09,841C577,708.53,563.96,470.79,454.07,470.79c-116.18,0-178.8,222.45-178.8,348.58
	c0,7.57,0.22,14.77,0.66,21.64H578.09z"/>
<path class="st0" d="M751.21,340.54c2.5,125.95-128.52,177.7-306.27,175.93c-177.75,1.77-277.52-49.98-275.01-175.93
	c-2.5-125.95,108.08-258.55,285.83-256.77C633.51,81.99,753.72,214.59,751.21,340.54z"/>
<g>
	<g>
		<path class="st1" d="M474.74,333.02c-1.86,64.62-52.98,138.5-129.81,138.51c-70.49,0-129.49-62.19-129.81-138.51
			c-0.35-82.6,68.19-138.81,129.81-139.8c52.57-0.84,88.72,37.61,96.81,46.66C447.97,246.86,476.19,282.89,474.74,333.02z"/>
		<ellipse class="st1" cx="566.1" cy="331.73" rx="129.81" ry="139.8"/>
	</g>
	<path class="st1" d="M498.78,261.83c0,12.87-19.37,23.3-43.27,23.3c-23.9,0-33.66-10.43-33.66-23.3c0-12.87,9.76-23.3,33.66-23.3
		C467.33,238.53,498.78,248.96,498.78,261.83z"/>
</g>
<g>
	<path class="st2" d="M527.39,398.67c0,0-4.83,8.63-13.08,19.23c-6.78,8.73-15.89,18.77-26.49,26.4
		c-9.78,7.07-20.84,12.07-32.57,12.07c-11.9,0-23.15-4.95-33.03-11.88c-11.08-7.76-20.51-18.01-27.29-26.59
		c-7.48-9.4-11.8-16.83-11.8-16.83s32.31-4.81,72.12-4.81C495.08,396.27,527.39,398.67,527.39,398.67z"/>
	<path class="st3" d="M527.39,398.67c0,0-4.83,8.63-13.08,19.23H394.93c-7.48-9.4-11.8-16.83-11.8-16.83s32.31-4.81,72.12-4.81
		C495.08,396.27,527.39,398.67,527.39,398.67z"/>
	<path class="st4" d="M487.82,444.3c-9.78,7.07-20.84,12.07-32.57,12.07c-11.9,0-23.15-4.95-33.03-11.88
		c8.61-3.08,20.24-4.95,33.03-4.95C467.82,439.54,479.24,441.34,487.82,444.3z"/>
</g>
<path class="st5" d="M410.61,643.09c15.33,3.11,205.39,39.23,281.26-64.91c8.3-11.38,16.04-25.56,21.64-43.27"/>
<path class="st6" d="M491.62,723.21c15.33,3.11,205.39,39.23,281.26-64.91c8.3-11.38,16.04-25.56,21.64-43.27"/>
<line class="st1" x1="469.99" y1="235.2" x2="469.99" y2="235.2"/>
<line class="st1" x1="469.99" y1="235.2" x2="469.99" y2="235.2"/>
<ellipse transform="matrix(0.1395 -0.9902 0.9902 0.1395 189.6055 840.0466)" class="st7" cx="578.16" cy="310.92" rx="32.45" ry="21.64"/>
<ellipse transform="matrix(0.9952 -0.098 0.098 0.9952 -28.826 34.8239)" class="st7" cx="340.17" cy="310.92" rx="21.64" ry="32.45"/>
<g>
	<path class="st8" d="M559.76,472.33c0.8-3.7,1.42-7.47,1.82-11.3v-22.55c-5.63-53.45-50.83-95.1-105.78-95.1
		c-58.75,0-106.37,47.63-106.37,106.38c0,8.56,1.04,16.87,2.95,24.84c41.87,17.35,78.72,20.23,101.03,20.23
		C500.66,494.83,537.76,482.01,559.76,472.33z"/>
	<path class="st9" d="M566.94,449.75c0-3.81-0.21-7.57-0.6-11.27v22.55C566.74,457.32,566.94,453.56,566.94,449.75z"/>
	<path class="st9" d="M458.17,494.83c-22.3,0-59.15-2.88-101.03-20.23c11.19,46.76,53.24,81.53,103.43,81.53
		c51,0,93.6-35.9,103.95-83.8C542.51,482.01,505.42,494.83,458.17,494.83z"/>
</g>
<ellipse transform="matrix(0.4279 -0.9038 0.9038 0.4279 -92.9986 597.5236)" class="st7" cx="425.51" cy="372.23" rx="10.82" ry="21.64"/>
<ellipse transform="matrix(0.9179 -0.3969 0.3969 0.9179 -108.219 225.2157)" class="st7" cx="490.07" cy="374.09" rx="21.64" ry="10.82"/>
<g>
	<path class="st10" d="M514.46,431.12c-18.89,20.56-49.69,33.65-77.26,24.38c-4.04-1.35-7.96-3.31-11.6-5.53
		c-6.09-3.63-12.03-7.54-17.33-12.29c-4.2-3.76-8.12-8.25-9.54-13.83c3.75,11.03,18.06,19,27.71,24.66
		C455.08,465.86,491.9,452.76,514.46,431.12L514.46,431.12z"/>
</g>
<path class="st0" d="M455.53,78.4c-10.28,41.28,5.97,72.84-3.29,70.26c-11.5-3.2-56.28-57.33-45.68-93.44
	c9.99-34.05,66.2-41.83,76.74-35.48C492.07,25.01,465.63,37.84,455.53,78.4z"/>
<path class="st0" d="M477.34,86.62c-28.08,14.45-38.73,32.52-41.42,28.73c-3.33-4.71,7.36-40.63,32.64-52.8
	c23.84-11.48,53.46,1.63,54.58,7.38C524.08,74.72,504.92,72.43,477.34,86.62z"/>
<path class="st0" d="M-6,516.46"/>
<path class="st11" d="M395.14,807.57c-200.91,39.99-258.61,6.7-289.67-80.23c-21-58.77-28.06-156.34,39.54-189.43
	c99.08-48.51,126.67,56.09,69.43,93.57"/>
</svg>
